<?xml version="1.0" encoding="us-ascii" standalone="no"?><svg xmlns="http://www.w3.org/2000/svg" xmlns:xlink="http://www.w3.org/1999/xlink" contentStyleType="text/css" height="1248px" preserveAspectRatio="none" style="width:1095px;height:1248px;background:#FFFFFF;" version="1.1" viewBox="0 0 1095 1248" width="1095px" zoomAndPan="magnify"><defs/><g><!--cluster A3Soft--><g id="cluster_A3Soft"><path d="M125.5,6 L179.5,6 A3.75,3.75 0 0 1 182,8.5 L189,28.2969 L1085.5,28.2969 A2.5,2.5 0 0 1 1088,30.7969 L1088,1238.5 A2.5,2.5 0 0 1 1085.5,1241 L125.5,1241 A2.5,2.5 0 0 1 123,1238.5 L123,8.5 A2.5,2.5 0 0 1 125.5,6 " fill="none" style="stroke:#000000;stroke-width:1.5;"/><line style="stroke:#000000;stroke-width:1.5;" x1="123" x2="189" y1="28.2969" y2="28.2969"/><text fill="#000000" font-family="sans-serif" font-size="14" font-weight="bold" lengthAdjust="spacing" textLength="53" x="127" y="20.9951">A3Soft</text></g><!--cluster A3PayPhpClient--><g id="cluster_A3PayPhpClient"><path d="M149.5,49 L274.5,49 A3.75,3.75 0 0 1 277,51.5 L284,71.2969 L1061.5,71.2969 A2.5,2.5 0 0 1 1064,73.7969 L1064,1214.5 A2.5,2.5 0 0 1 1061.5,1217 L149.5,1217 A2.5,2.5 0 0 1 147,1214.5 L147,51.5 A2.5,2.5 0 0 1 149.5,49 " fill="none" style="stroke:#000000;stroke-width:1.5;"/><line style="stroke:#000000;stroke-width:1.5;" x1="147" x2="284" y1="71.2969" y2="71.2969"/><text fill="#000000" font-family="sans-serif" font-size="14" font-weight="bold" lengthAdjust="spacing" textLength="124" x="151" y="63.9951">A3PayPhpClient</text></g><!--cluster Exception--><g id="cluster_Exception"><path d="M173.5,102 L251.5,102 A3.75,3.75 0 0 1 254,104.5 L261,124.2969 L439.5,124.2969 A2.5,2.5 0 0 1 442,126.7969 L442,450.5 A2.5,2.5 0 0 1 439.5,453 L173.5,453 A2.5,2.5 0 0 1 171,450.5 L171,104.5 A2.5,2.5 0 0 1 173.5,102 " fill="none" style="stroke:#000000;stroke-width:1.5;"/><line style="stroke:#000000;stroke-width:1.5;" x1="171" x2="261" y1="124.2969" y2="124.2969"/><text fill="#000000" font-family="sans-serif" font-size="14" font-weight="bold" lengthAdjust="spacing" textLength="77" x="175" y="116.9951">Exception</text></g><!--cluster Helper--><g id="cluster_Helper"><path d="M468.5,92 L521.5,92 A3.75,3.75 0 0 1 524,94.5 L531,114.2969 L1037.5,114.2969 A2.5,2.5 0 0 1 1040,116.7969 L1040,1190.5 A2.5,2.5 0 0 1 1037.5,1193 L468.5,1193 A2.5,2.5 0 0 1 466,1190.5 L466,94.5 A2.5,2.5 0 0 1 468.5,92 " fill="none" style="stroke:#000000;stroke-width:1.5;"/><line style="stroke:#000000;stroke-width:1.5;" x1="466" x2="531" y1="114.2969" y2="114.2969"/><text fill="#000000" font-family="sans-serif" font-size="14" font-weight="bold" lengthAdjust="spacing" textLength="52" x="470" y="106.9951">Helper</text></g><!--cluster PaymentGatewayApi--><g id="cluster_PaymentGatewayApi"><path d="M492.5,135 L655.5,135 A3.75,3.75 0 0 1 658,137.5 L665,157.2969 L1013.5,157.2969 A2.5,2.5 0 0 1 1016,159.7969 L1016,1166.5 A2.5,2.5 0 0 1 1013.5,1169 L492.5,1169 A2.5,2.5 0 0 1 490,1166.5 L490,137.5 A2.5,2.5 0 0 1 492.5,135 " fill="none" style="stroke:#000000;stroke-width:1.5;"/><line style="stroke:#000000;stroke-width:1.5;" x1="490" x2="665" y1="157.2969" y2="157.2969"/><text fill="#000000" font-family="sans-serif" font-size="14" font-weight="bold" lengthAdjust="spacing" textLength="162" x="494" y="149.9951">PaymentGatewayApi</text></g><!--cluster Notify--><g id="cluster_Notify"><path d="M540.5,178 L587.5,178 A3.75,3.75 0 0 1 590,180.5 L597,200.2969 L729.5,200.2969 A2.5,2.5 0 0 1 732,202.7969 L732,258.5 A2.5,2.5 0 0 1 729.5,261 L540.5,261 A2.5,2.5 0 0 1 538,258.5 L538,180.5 A2.5,2.5 0 0 1 540.5,178 " fill="none" style="stroke:#000000;stroke-width:1.5;"/><line style="stroke:#000000;stroke-width:1.5;" x1="538" x2="597" y1="200.2969" y2="200.2969"/><text fill="#000000" font-family="sans-serif" font-size="14" font-weight="bold" lengthAdjust="spacing" textLength="46" x="542" y="192.9951">Notify</text></g><!--cluster Request--><g id="cluster_Request"><path d="M516.5,285 L582.5,285 A3.75,3.75 0 0 1 585,287.5 L592,307.2969 L989.5,307.2969 A2.5,2.5 0 0 1 992,309.7969 L992,901.5 A2.5,2.5 0 0 1 989.5,904 L516.5,904 A2.5,2.5 0 0 1 514,901.5 L514,287.5 A2.5,2.5 0 0 1 516.5,285 " fill="none" style="stroke:#000000;stroke-width:1.5;"/><line style="stroke:#000000;stroke-width:1.5;" x1="514" x2="592" y1="307.2969" y2="307.2969"/><text fill="#000000" font-family="sans-serif" font-size="14" font-weight="bold" lengthAdjust="spacing" textLength="65" x="518" y="299.9951">Request</text></g><!--cluster Response--><g id="cluster_Response"><path d="M527.5,928 L606.5,928 A3.75,3.75 0 0 1 609,930.5 L616,950.2969 L742.5,950.2969 A2.5,2.5 0 0 1 745,952.7969 L745,1142.5 A2.5,2.5 0 0 1 742.5,1145 L527.5,1145 A2.5,2.5 0 0 1 525,1142.5 L525,930.5 A2.5,2.5 0 0 1 527.5,928 " fill="none" style="stroke:#000000;stroke-width:1.5;"/><line style="stroke:#000000;stroke-width:1.5;" x1="525" x2="616" y1="950.2969" y2="950.2969"/><text fill="#000000" font-family="sans-serif" font-size="14" font-weight="bold" lengthAdjust="spacing" textLength="78" x="529" y="942.9951">Response</text></g><!--cluster Util--><g id="cluster_Util"><path d="M222.5,486 L248.5,486 A3.75,3.75 0 0 1 251,488.5 L258,508.2969 L390.5,508.2969 A2.5,2.5 0 0 1 393,510.7969 L393,633.5 A2.5,2.5 0 0 1 390.5,636 L222.5,636 A2.5,2.5 0 0 1 220,633.5 L220,488.5 A2.5,2.5 0 0 1 222.5,486 " fill="none" style="stroke:#000000;stroke-width:1.5;"/><line style="stroke:#000000;stroke-width:1.5;" x1="220" x2="258" y1="508.2969" y2="508.2969"/><text fill="#000000" font-family="sans-serif" font-size="14" font-weight="bold" lengthAdjust="spacing" textLength="25" x="224" y="500.9951">Util</text></g><!--cluster PaymentGatewayApi--><g id="cluster_PaymentGatewayApi"><path d="M181,885 L344,885 A3.75,3.75 0 0 1 346.5,887.5 L353.5,907.2969 L432,907.2969 A2.5,2.5 0 0 1 434.5,909.7969 L434.5,965.5 A2.5,2.5 0 0 1 432,968 L181,968 A2.5,2.5 0 0 1 178.5,965.5 L178.5,887.5 A2.5,2.5 0 0 1 181,885 " fill="none" style="stroke:#000000;stroke-width:1.5;"/><line style="stroke:#000000;stroke-width:1.5;" x1="178.5" x2="353.5" y1="907.2969" y2="907.2969"/><text fill="#000000" font-family="sans-serif" font-size="14" font-weight="bold" lengthAdjust="spacing" textLength="162" x="182.5" y="899.9951">PaymentGatewayApi</text></g><!--class CurlRequestException--><g id="elem_CurlRequestException"><rect codeLine="15" fill="#F1F1F1" height="32" id="CurlRequestException" rx="2.5" ry="2.5" style="stroke:#181818;stroke-width:0.5;" width="186" x="213.5" y="204"/><ellipse cx="228.5" cy="220" fill="#ADD1B2" rx="11" ry="11" style="stroke:#181818;stroke-width:1.0;"/><path d="M231.4688,225.6406 Q230.8906,225.9375 230.25,226.0781 Q229.6094,226.2344 228.9063,226.2344 Q226.4063,226.2344 225.0781,224.5938 Q223.7656,222.9375 223.7656,219.8125 Q223.7656,216.6875 225.0781,215.0313 Q226.4063,213.375 228.9063,213.375 Q229.6094,213.375 230.25,213.5313 Q230.9063,213.6875 231.4688,213.9844 L231.4688,216.7031 Q230.8438,216.125 230.25,215.8594 Q229.6563,215.5781 229.0313,215.5781 Q227.6875,215.5781 227,216.6563 Q226.3125,217.7188 226.3125,219.8125 Q226.3125,221.9063 227,222.9844 Q227.6875,224.0469 229.0313,224.0469 Q229.6563,224.0469 230.25,223.7813 Q230.8438,223.5 231.4688,222.9219 L231.4688,225.6406 Z " fill="#000000"/><text fill="#000000" font-family="sans-serif" font-size="14" lengthAdjust="spacing" textLength="154" x="242.5" y="224.8467">CurlRequestException</text></g><!--class VariableLengthException--><g id="elem_VariableLengthException"><rect codeLine="18" fill="#F1F1F1" height="32" id="VariableLengthException" rx="2.5" ry="2.5" style="stroke:#181818;stroke-width:0.5;" width="202" x="205.5" y="271"/><ellipse cx="220.5" cy="287" fill="#ADD1B2" rx="11" ry="11" style="stroke:#181818;stroke-width:1.0;"/><path d="M223.4688,292.6406 Q222.8906,292.9375 222.25,293.0781 Q221.6094,293.2344 220.9063,293.2344 Q218.4063,293.2344 217.0781,291.5938 Q215.7656,289.9375 215.7656,286.8125 Q215.7656,283.6875 217.0781,282.0313 Q218.4063,280.375 220.9063,280.375 Q221.6094,280.375 222.25,280.5313 Q222.9063,280.6875 223.4688,280.9844 L223.4688,283.7031 Q222.8438,283.125 222.25,282.8594 Q221.6563,282.5781 221.0313,282.5781 Q219.6875,282.5781 219,283.6563 Q218.3125,284.7188 218.3125,286.8125 Q218.3125,288.9063 219,289.9844 Q219.6875,291.0469 221.0313,291.0469 Q221.6563,291.0469 222.25,290.7813 Q222.8438,290.5 223.4688,289.9219 L223.4688,292.6406 Z " fill="#000000"/><text fill="#000000" font-family="sans-serif" font-size="14" lengthAdjust="spacing" textLength="170" x="234.5" y="291.8467">VariableLengthException</text></g><!--class VariableNotContainsException--><g id="elem_VariableNotContainsException"><rect codeLine="21" fill="#F1F1F1" height="32" id="VariableNotContainsException" rx="2.5" ry="2.5" style="stroke:#181818;stroke-width:0.5;" width="239" x="187" y="338"/><ellipse cx="202" cy="354" fill="#ADD1B2" rx="11" ry="11" style="stroke:#181818;stroke-width:1.0;"/><path d="M204.9688,359.6406 Q204.3906,359.9375 203.75,360.0781 Q203.1094,360.2344 202.4063,360.2344 Q199.9063,360.2344 198.5781,358.5938 Q197.2656,356.9375 197.2656,353.8125 Q197.2656,350.6875 198.5781,349.0313 Q199.9063,347.375 202.4063,347.375 Q203.1094,347.375 203.75,347.5313 Q204.4063,347.6875 204.9688,347.9844 L204.9688,350.7031 Q204.3438,350.125 203.75,349.8594 Q203.1563,349.5781 202.5313,349.5781 Q201.1875,349.5781 200.5,350.6563 Q199.8125,351.7188 199.8125,353.8125 Q199.8125,355.9063 200.5,356.9844 Q201.1875,358.0469 202.5313,358.0469 Q203.1563,358.0469 203.75,357.7813 Q204.3438,357.5 204.9688,356.9219 L204.9688,359.6406 Z " fill="#000000"/><text fill="#000000" font-family="sans-serif" font-size="14" lengthAdjust="spacing" textLength="207" x="216" y="358.8467">VariableNotContainsException</text></g><!--class VariableNotGuidException--><g id="elem_VariableNotGuidException"><rect codeLine="24" fill="#F1F1F1" height="32" id="VariableNotGuidException" rx="2.5" ry="2.5" style="stroke:#181818;stroke-width:0.5;" width="210" x="201.5" y="405"/><ellipse cx="216.5" cy="421" fill="#ADD1B2" rx="11" ry="11" style="stroke:#181818;stroke-width:1.0;"/><path d="M219.4688,426.6406 Q218.8906,426.9375 218.25,427.0781 Q217.6094,427.2344 216.9063,427.2344 Q214.4063,427.2344 213.0781,425.5938 Q211.7656,423.9375 211.7656,420.8125 Q211.7656,417.6875 213.0781,416.0313 Q214.4063,414.375 216.9063,414.375 Q217.6094,414.375 218.25,414.5313 Q218.9063,414.6875 219.4688,414.9844 L219.4688,417.7031 Q218.8438,417.125 218.25,416.8594 Q217.6563,416.5781 217.0313,416.5781 Q215.6875,416.5781 215,417.6563 Q214.3125,418.7188 214.3125,420.8125 Q214.3125,422.9063 215,423.9844 Q215.6875,425.0469 217.0313,425.0469 Q217.6563,425.0469 218.25,424.7813 Q218.8438,424.5 219.4688,423.9219 L219.4688,426.6406 Z " fill="#000000"/><text fill="#000000" font-family="sans-serif" font-size="14" lengthAdjust="spacing" textLength="178" x="230.5" y="425.8467">VariableNotGuidException</text></g><!--class VariableNotUrlException--><g id="elem_VariableNotUrlException"><rect codeLine="27" fill="#F1F1F1" height="32" id="VariableNotUrlException" rx="2.5" ry="2.5" style="stroke:#181818;stroke-width:0.5;" width="196" x="208.5" y="137"/><ellipse cx="223.5" cy="153" fill="#ADD1B2" rx="11" ry="11" style="stroke:#181818;stroke-width:1.0;"/><path d="M226.4688,158.6406 Q225.8906,158.9375 225.25,159.0781 Q224.6094,159.2344 223.9063,159.2344 Q221.4063,159.2344 220.0781,157.5938 Q218.7656,155.9375 218.7656,152.8125 Q218.7656,149.6875 220.0781,148.0313 Q221.4063,146.375 223.9063,146.375 Q224.6094,146.375 225.25,146.5313 Q225.9063,146.6875 226.4688,146.9844 L226.4688,149.7031 Q225.8438,149.125 225.25,148.8594 Q224.6563,148.5781 224.0313,148.5781 Q222.6875,148.5781 222,149.6563 Q221.3125,150.7188 221.3125,152.8125 Q221.3125,154.9063 222,155.9844 Q222.6875,157.0469 224.0313,157.0469 Q224.6563,157.0469 225.25,156.7813 Q225.8438,156.5 226.4688,155.9219 L226.4688,158.6406 Z " fill="#000000"/><text fill="#000000" font-family="sans-serif" font-size="14" lengthAdjust="spacing" textLength="164" x="237.5" y="157.8467">VariableNotUrlException</text></g><!--class PaymentNotifyData--><g id="elem_PaymentNotifyData"><rect codeLine="30" fill="#F1F1F1" height="32" id="PaymentNotifyData" rx="2.5" ry="2.5" style="stroke:#181818;stroke-width:0.5;" width="162" x="554" y="213"/><ellipse cx="569" cy="229" fill="#ADD1B2" rx="11" ry="11" style="stroke:#181818;stroke-width:1.0;"/><path d="M571.9688,234.6406 Q571.3906,234.9375 570.75,235.0781 Q570.1094,235.2344 569.4063,235.2344 Q566.9063,235.2344 565.5781,233.5938 Q564.2656,231.9375 564.2656,228.8125 Q564.2656,225.6875 565.5781,224.0313 Q566.9063,222.375 569.4063,222.375 Q570.1094,222.375 570.75,222.5313 Q571.4063,222.6875 571.9688,222.9844 L571.9688,225.7031 Q571.3438,225.125 570.75,224.8594 Q570.1563,224.5781 569.5313,224.5781 Q568.1875,224.5781 567.5,225.6563 Q566.8125,226.7188 566.8125,228.8125 Q566.8125,230.9063 567.5,231.9844 Q568.1875,233.0469 569.5313,233.0469 Q570.1563,233.0469 570.75,232.7813 Q571.3438,232.5 571.9688,231.9219 L571.9688,234.6406 Z " fill="#000000"/><text fill="#000000" font-family="sans-serif" font-size="14" lengthAdjust="spacing" textLength="130" x="583" y="233.8467">PaymentNotifyData</text></g><!--class Basket--><g id="elem_Basket"><rect codeLine="33" fill="#F1F1F1" height="32" id="Basket" rx="2.5" ry="2.5" style="stroke:#181818;stroke-width:0.5;" width="80" x="595" y="454"/><ellipse cx="610" cy="470" fill="#ADD1B2" rx="11" ry="11" style="stroke:#181818;stroke-width:1.0;"/><path d="M612.9688,475.6406 Q612.3906,475.9375 611.75,476.0781 Q611.1094,476.2344 610.4063,476.2344 Q607.9063,476.2344 606.5781,474.5938 Q605.2656,472.9375 605.2656,469.8125 Q605.2656,466.6875 606.5781,465.0313 Q607.9063,463.375 610.4063,463.375 Q611.1094,463.375 611.75,463.5313 Q612.4063,463.6875 612.9688,463.9844 L612.9688,466.7031 Q612.3438,466.125 611.75,465.8594 Q611.1563,465.5781 610.5313,465.5781 Q609.1875,465.5781 608.5,466.6563 Q607.8125,467.7188 607.8125,469.8125 Q607.8125,471.9063 608.5,472.9844 Q609.1875,474.0469 610.5313,474.0469 Q611.1563,474.0469 611.75,473.7813 Q612.3438,473.5 612.9688,472.9219 L612.9688,475.6406 Z " fill="#000000"/><text fill="#000000" font-family="sans-serif" font-size="14" lengthAdjust="spacing" textLength="48" x="624" y="474.8467">Basket</text></g><!--class BasketHeader--><g id="elem_BasketHeader"><rect codeLine="36" fill="#F1F1F1" height="32" id="BasketHeader" rx="2.5" ry="2.5" style="stroke:#181818;stroke-width:0.5;" width="130" x="570" y="521"/><ellipse cx="585" cy="537" fill="#ADD1B2" rx="11" ry="11" style="stroke:#181818;stroke-width:1.0;"/><path d="M587.9688,542.6406 Q587.3906,542.9375 586.75,543.0781 Q586.1094,543.2344 585.4063,543.2344 Q582.9063,543.2344 581.5781,541.5938 Q580.2656,539.9375 580.2656,536.8125 Q580.2656,533.6875 581.5781,532.0313 Q582.9063,530.375 585.4063,530.375 Q586.1094,530.375 586.75,530.5313 Q587.4063,530.6875 587.9688,530.9844 L587.9688,533.7031 Q587.3438,533.125 586.75,532.8594 Q586.1563,532.5781 585.5313,532.5781 Q584.1875,532.5781 583.5,533.6563 Q582.8125,534.7188 582.8125,536.8125 Q582.8125,538.9063 583.5,539.9844 Q584.1875,541.0469 585.5313,541.0469 Q586.1563,541.0469 586.75,540.7813 Q587.3438,540.5 587.9688,539.9219 L587.9688,542.6406 Z " fill="#000000"/><text fill="#000000" font-family="sans-serif" font-size="14" lengthAdjust="spacing" textLength="98" x="599" y="541.8467">BasketHeader</text></g><!--class BasketItem--><g id="elem_BasketItem"><rect codeLine="39" fill="#F1F1F1" height="32" id="BasketItem" rx="2.5" ry="2.5" style="stroke:#181818;stroke-width:0.5;" width="110" x="580" y="588"/><ellipse cx="595" cy="604" fill="#ADD1B2" rx="11" ry="11" style="stroke:#181818;stroke-width:1.0;"/><path d="M597.9688,609.6406 Q597.3906,609.9375 596.75,610.0781 Q596.1094,610.2344 595.4063,610.2344 Q592.9063,610.2344 591.5781,608.5938 Q590.2656,606.9375 590.2656,603.8125 Q590.2656,600.6875 591.5781,599.0313 Q592.9063,597.375 595.4063,597.375 Q596.1094,597.375 596.75,597.5313 Q597.4063,597.6875 597.9688,597.9844 L597.9688,600.7031 Q597.3438,600.125 596.75,599.8594 Q596.1563,599.5781 595.5313,599.5781 Q594.1875,599.5781 593.5,600.6563 Q592.8125,601.7188 592.8125,603.8125 Q592.8125,605.9063 593.5,606.9844 Q594.1875,608.0469 595.5313,608.0469 Q596.1563,608.0469 596.75,607.7813 Q597.3438,607.5 597.9688,606.9219 L597.9688,609.6406 Z " fill="#000000"/><text fill="#000000" font-family="sans-serif" font-size="14" lengthAdjust="spacing" textLength="78" x="609" y="608.8467">BasketItem</text></g><!--class CardHolder--><g id="elem_CardHolder"><rect codeLine="42" fill="#F1F1F1" height="32" id="CardHolder" rx="2.5" ry="2.5" style="stroke:#181818;stroke-width:0.5;" width="109" x="580.5" y="655"/><ellipse cx="595.5" cy="671" fill="#ADD1B2" rx="11" ry="11" style="stroke:#181818;stroke-width:1.0;"/><path d="M598.4688,676.6406 Q597.8906,676.9375 597.25,677.0781 Q596.6094,677.2344 595.9063,677.2344 Q593.4063,677.2344 592.0781,675.5938 Q590.7656,673.9375 590.7656,670.8125 Q590.7656,667.6875 592.0781,666.0313 Q593.4063,664.375 595.9063,664.375 Q596.6094,664.375 597.25,664.5313 Q597.9063,664.6875 598.4688,664.9844 L598.4688,667.7031 Q597.8438,667.125 597.25,666.8594 Q596.6563,666.5781 596.0313,666.5781 Q594.6875,666.5781 594,667.6563 Q593.3125,668.7188 593.3125,670.8125 Q593.3125,672.9063 594,673.9844 Q594.6875,675.0469 596.0313,675.0469 Q596.6563,675.0469 597.25,674.7813 Q597.8438,674.5 598.4688,673.9219 L598.4688,676.6406 Z " fill="#000000"/><text fill="#000000" font-family="sans-serif" font-size="14" lengthAdjust="spacing" textLength="77" x="609.5" y="675.8467">CardHolder</text></g><!--class CardHolderPhoneNumber--><g id="elem_CardHolderPhoneNumber"><rect codeLine="45" fill="#F1F1F1" height="32" id="CardHolderPhoneNumber" rx="2.5" ry="2.5" style="stroke:#181818;stroke-width:0.5;" width="209" x="530.5" y="722"/><ellipse cx="545.5" cy="738" fill="#ADD1B2" rx="11" ry="11" style="stroke:#181818;stroke-width:1.0;"/><path d="M548.4688,743.6406 Q547.8906,743.9375 547.25,744.0781 Q546.6094,744.2344 545.9063,744.2344 Q543.4063,744.2344 542.0781,742.5938 Q540.7656,740.9375 540.7656,737.8125 Q540.7656,734.6875 542.0781,733.0313 Q543.4063,731.375 545.9063,731.375 Q546.6094,731.375 547.25,731.5313 Q547.9063,731.6875 548.4688,731.9844 L548.4688,734.7031 Q547.8438,734.125 547.25,733.8594 Q546.6563,733.5781 546.0313,733.5781 Q544.6875,733.5781 544,734.6563 Q543.3125,735.7188 543.3125,737.8125 Q543.3125,739.9063 544,740.9844 Q544.6875,742.0469 546.0313,742.0469 Q546.6563,742.0469 547.25,741.7813 Q547.8438,741.5 548.4688,740.9219 L548.4688,743.6406 Z " fill="#000000"/><text fill="#000000" font-family="sans-serif" font-size="14" lengthAdjust="spacing" textLength="177" x="559.5" y="742.8467">CardHolderPhoneNumber</text></g><!--class CustomerBasket--><g id="elem_CustomerBasket"><rect codeLine="48" fill="#F1F1F1" height="32" id="CustomerBasket" rx="2.5" ry="2.5" style="stroke:#181818;stroke-width:0.5;" width="148" x="561" y="789"/><ellipse cx="576" cy="805" fill="#ADD1B2" rx="11" ry="11" style="stroke:#181818;stroke-width:1.0;"/><path d="M578.9688,810.6406 Q578.3906,810.9375 577.75,811.0781 Q577.1094,811.2344 576.4063,811.2344 Q573.9063,811.2344 572.5781,809.5938 Q571.2656,807.9375 571.2656,804.8125 Q571.2656,801.6875 572.5781,800.0313 Q573.9063,798.375 576.4063,798.375 Q577.1094,798.375 577.75,798.5313 Q578.4063,798.6875 578.9688,798.9844 L578.9688,801.7031 Q578.3438,801.125 577.75,800.8594 Q577.1563,800.5781 576.5313,800.5781 Q575.1875,800.5781 574.5,801.6563 Q573.8125,802.7188 573.8125,804.8125 Q573.8125,806.9063 574.5,807.9844 Q575.1875,809.0469 576.5313,809.0469 Q577.1563,809.0469 577.75,808.7813 Q578.3438,808.5 578.9688,807.9219 L578.9688,810.6406 Z " fill="#000000"/><text fill="#000000" font-family="sans-serif" font-size="14" lengthAdjust="spacing" textLength="116" x="590" y="809.8467">CustomerBasket</text></g><!--class DanubePay--><g id="elem_DanubePay"><rect codeLine="51" fill="#F1F1F1" height="32" id="DanubePay" rx="2.5" ry="2.5" style="stroke:#181818;stroke-width:0.5;" width="111" x="579.5" y="320"/><ellipse cx="594.5" cy="336" fill="#ADD1B2" rx="11" ry="11" style="stroke:#181818;stroke-width:1.0;"/><path d="M597.4688,341.6406 Q596.8906,341.9375 596.25,342.0781 Q595.6094,342.2344 594.9063,342.2344 Q592.4063,342.2344 591.0781,340.5938 Q589.7656,338.9375 589.7656,335.8125 Q589.7656,332.6875 591.0781,331.0313 Q592.4063,329.375 594.9063,329.375 Q595.6094,329.375 596.25,329.5313 Q596.9063,329.6875 597.4688,329.9844 L597.4688,332.7031 Q596.8438,332.125 596.25,331.8594 Q595.6563,331.5781 595.0313,331.5781 Q593.6875,331.5781 593,332.6563 Q592.3125,333.7188 592.3125,335.8125 Q592.3125,337.9063 593,338.9844 Q593.6875,340.0469 595.0313,340.0469 Q595.6563,340.0469 596.25,339.7813 Q596.8438,339.5 597.4688,338.9219 L597.4688,341.6406 Z " fill="#000000"/><text fill="#000000" font-family="sans-serif" font-size="14" lengthAdjust="spacing" textLength="79" x="608.5" y="340.8467">DanubePay</text></g><!--class Payment--><g id="elem_Payment"><rect codeLine="54" fill="#F1F1F1" height="32" id="Payment" rx="2.5" ry="2.5" style="stroke:#181818;stroke-width:0.5;" width="92" x="589" y="387"/><ellipse cx="604" cy="403" fill="#ADD1B2" rx="11" ry="11" style="stroke:#181818;stroke-width:1.0;"/><path d="M606.9688,408.6406 Q606.3906,408.9375 605.75,409.0781 Q605.1094,409.2344 604.4063,409.2344 Q601.9063,409.2344 600.5781,407.5938 Q599.2656,405.9375 599.2656,402.8125 Q599.2656,399.6875 600.5781,398.0313 Q601.9063,396.375 604.4063,396.375 Q605.1094,396.375 605.75,396.5313 Q606.4063,396.6875 606.9688,396.9844 L606.9688,399.7031 Q606.3438,399.125 605.75,398.8594 Q605.1563,398.5781 604.5313,398.5781 Q603.1875,398.5781 602.5,399.6563 Q601.8125,400.7188 601.8125,402.8125 Q601.8125,404.9063 602.5,405.9844 Q603.1875,407.0469 604.5313,407.0469 Q605.1563,407.0469 605.75,406.7813 Q606.3438,406.5 606.9688,405.9219 L606.9688,408.6406 Z " fill="#000000"/><text fill="#000000" font-family="sans-serif" font-size="14" lengthAdjust="spacing" textLength="60" x="618" y="407.8467">Payment</text></g><!--class PaymentInfoRequest--><g id="elem_PaymentInfoRequest"><rect codeLine="57" fill="#F1F1F1" height="32" id="PaymentInfoRequest" rx="2.5" ry="2.5" style="stroke:#181818;stroke-width:0.5;" width="176" x="800" y="622"/><ellipse cx="815" cy="638" fill="#ADD1B2" rx="11" ry="11" style="stroke:#181818;stroke-width:1.0;"/><path d="M817.9688,643.6406 Q817.3906,643.9375 816.75,644.0781 Q816.1094,644.2344 815.4063,644.2344 Q812.9063,644.2344 811.5781,642.5938 Q810.2656,640.9375 810.2656,637.8125 Q810.2656,634.6875 811.5781,633.0313 Q812.9063,631.375 815.4063,631.375 Q816.1094,631.375 816.75,631.5313 Q817.4063,631.6875 817.9688,631.9844 L817.9688,634.7031 Q817.3438,634.125 816.75,633.8594 Q816.1563,633.5781 815.5313,633.5781 Q814.1875,633.5781 813.5,634.6563 Q812.8125,635.7188 812.8125,637.8125 Q812.8125,639.9063 813.5,640.9844 Q814.1875,642.0469 815.5313,642.0469 Q816.1563,642.0469 816.75,641.7813 Q817.3438,641.5 817.9688,640.9219 L817.9688,643.6406 Z " fill="#000000"/><text fill="#000000" font-family="sans-serif" font-size="14" lengthAdjust="spacing" textLength="144" x="829" y="642.8467">PaymentInfoRequest</text></g><!--class PaymentGatewayRequest--><g id="elem_PaymentGatewayRequest"><rect codeLine="63" fill="#F1F1F1" height="32" id="PaymentGatewayRequest" rx="2.5" ry="2.5" style="stroke:#181818;stroke-width:0.5;" width="210" x="530" y="856"/><ellipse cx="545" cy="872" fill="#B4A7E5" rx="11" ry="11" style="stroke:#181818;stroke-width:1.0;"/><path d="M540.9219,867.7656 L540.9219,865.6094 L548.3125,865.6094 L548.3125,867.7656 L545.8438,867.7656 L545.8438,875.8438 L548.3125,875.8438 L548.3125,878 L540.9219,878 L540.9219,875.8438 L543.3906,875.8438 L543.3906,867.7656 L540.9219,867.7656 Z " fill="#000000"/><text fill="#000000" font-family="sans-serif" font-size="14" font-style="italic" lengthAdjust="spacing" textLength="178" x="559" y="876.8467">PaymentGatewayRequest</text></g><!--class PaymentRequest--><g id="elem_PaymentRequest"><rect codeLine="60" fill="#F1F1F1" height="32" id="PaymentRequest" rx="2.5" ry="2.5" style="stroke:#181818;stroke-width:0.5;" width="151" x="812.5" y="438"/><ellipse cx="827.5" cy="454" fill="#ADD1B2" rx="11" ry="11" style="stroke:#181818;stroke-width:1.0;"/><path d="M830.4688,459.6406 Q829.8906,459.9375 829.25,460.0781 Q828.6094,460.2344 827.9063,460.2344 Q825.4063,460.2344 824.0781,458.5938 Q822.7656,456.9375 822.7656,453.8125 Q822.7656,450.6875 824.0781,449.0313 Q825.4063,447.375 827.9063,447.375 Q828.6094,447.375 829.25,447.5313 Q829.9063,447.6875 830.4688,447.9844 L830.4688,450.7031 Q829.8438,450.125 829.25,449.8594 Q828.6563,449.5781 828.0313,449.5781 Q826.6875,449.5781 826,450.6563 Q825.3125,451.7188 825.3125,453.8125 Q825.3125,455.9063 826,456.9844 Q826.6875,458.0469 828.0313,458.0469 Q828.6563,458.0469 829.25,457.7813 Q829.8438,457.5 830.4688,456.9219 L830.4688,459.6406 Z " fill="#000000"/><text fill="#000000" font-family="sans-serif" font-size="14" lengthAdjust="spacing" textLength="119" x="841.5" y="458.8467">PaymentRequest</text></g><!--class CurlResponse--><g id="elem_CurlResponse"><rect codeLine="66" fill="#F1F1F1" height="32" id="CurlResponse" rx="2.5" ry="2.5" style="stroke:#181818;stroke-width:0.5;" width="130" x="570" y="963"/><ellipse cx="585" cy="979" fill="#ADD1B2" rx="11" ry="11" style="stroke:#181818;stroke-width:1.0;"/><path d="M587.9688,984.6406 Q587.3906,984.9375 586.75,985.0781 Q586.1094,985.2344 585.4063,985.2344 Q582.9063,985.2344 581.5781,983.5938 Q580.2656,981.9375 580.2656,978.8125 Q580.2656,975.6875 581.5781,974.0313 Q582.9063,972.375 585.4063,972.375 Q586.1094,972.375 586.75,972.5313 Q587.4063,972.6875 587.9688,972.9844 L587.9688,975.7031 Q587.3438,975.125 586.75,974.8594 Q586.1563,974.5781 585.5313,974.5781 Q584.1875,974.5781 583.5,975.6563 Q582.8125,976.7188 582.8125,978.8125 Q582.8125,980.9063 583.5,981.9844 Q584.1875,983.0469 585.5313,983.0469 Q586.1563,983.0469 586.75,982.7813 Q587.3438,982.5 587.9688,981.9219 L587.9688,984.6406 Z " fill="#000000"/><text fill="#000000" font-family="sans-serif" font-size="14" lengthAdjust="spacing" textLength="98" x="599" y="983.8467">CurlResponse</text></g><!--class PaymentInfoResponse--><g id="elem_PaymentInfoResponse"><rect codeLine="69" fill="#F1F1F1" height="32" id="PaymentInfoResponse" rx="2.5" ry="2.5" style="stroke:#181818;stroke-width:0.5;" width="188" x="541" y="1030"/><ellipse cx="556" cy="1046" fill="#ADD1B2" rx="11" ry="11" style="stroke:#181818;stroke-width:1.0;"/><path d="M558.9688,1051.6406 Q558.3906,1051.9375 557.75,1052.0781 Q557.1094,1052.2344 556.4063,1052.2344 Q553.9063,1052.2344 552.5781,1050.5938 Q551.2656,1048.9375 551.2656,1045.8125 Q551.2656,1042.6875 552.5781,1041.0313 Q553.9063,1039.375 556.4063,1039.375 Q557.1094,1039.375 557.75,1039.5313 Q558.4063,1039.6875 558.9688,1039.9844 L558.9688,1042.7031 Q558.3438,1042.125 557.75,1041.8594 Q557.1563,1041.5781 556.5313,1041.5781 Q555.1875,1041.5781 554.5,1042.6563 Q553.8125,1043.7188 553.8125,1045.8125 Q553.8125,1047.9063 554.5,1048.9844 Q555.1875,1050.0469 556.5313,1050.0469 Q557.1563,1050.0469 557.75,1049.7813 Q558.3438,1049.5 558.9688,1048.9219 L558.9688,1051.6406 Z " fill="#000000"/><text fill="#000000" font-family="sans-serif" font-size="14" lengthAdjust="spacing" textLength="156" x="570" y="1050.8467">PaymentInfoResponse</text></g><!--class PaymentResponse--><g id="elem_PaymentResponse"><rect codeLine="72" fill="#F1F1F1" height="32" id="PaymentResponse" rx="2.5" ry="2.5" style="stroke:#181818;stroke-width:0.5;" width="163" x="553.5" y="1097"/><ellipse cx="568.5" cy="1113" fill="#ADD1B2" rx="11" ry="11" style="stroke:#181818;stroke-width:1.0;"/><path d="M571.4688,1118.6406 Q570.8906,1118.9375 570.25,1119.0781 Q569.6094,1119.2344 568.9063,1119.2344 Q566.4063,1119.2344 565.0781,1117.5938 Q563.7656,1115.9375 563.7656,1112.8125 Q563.7656,1109.6875 565.0781,1108.0313 Q566.4063,1106.375 568.9063,1106.375 Q569.6094,1106.375 570.25,1106.5313 Q570.9063,1106.6875 571.4688,1106.9844 L571.4688,1109.7031 Q570.8438,1109.125 570.25,1108.8594 Q569.6563,1108.5781 569.0313,1108.5781 Q567.6875,1108.5781 567,1109.6563 Q566.3125,1110.7188 566.3125,1112.8125 Q566.3125,1114.9063 567,1115.9844 Q567.6875,1117.0469 569.0313,1117.0469 Q569.6563,1117.0469 570.25,1116.7813 Q570.8438,1116.5 571.4688,1115.9219 L571.4688,1118.6406 Z " fill="#000000"/><text fill="#000000" font-family="sans-serif" font-size="14" lengthAdjust="spacing" textLength="131" x="582.5" y="1117.8467">PaymentResponse</text></g><!--class AbstractToArray--><g id="elem_AbstractToArray"><rect codeLine="78" fill="#F1F1F1" height="32" id="AbstractToArray" rx="2.5" ry="2.5" style="stroke:#181818;stroke-width:0.5;" width="141" x="236" y="521"/><ellipse cx="251" cy="537" fill="#A9DCDF" rx="11" ry="11" style="stroke:#181818;stroke-width:1.0;"/><path d="M251.1094,532.3438 L249.9531,537.4219 L252.2813,537.4219 L251.1094,532.3438 Z M249.625,530.1094 L252.6094,530.1094 L255.9688,542.5 L253.5156,542.5 L252.75,539.4375 L249.4688,539.4375 L248.7188,542.5 L246.2813,542.5 L249.625,530.1094 Z " fill="#000000"/><text fill="#000000" font-family="sans-serif" font-size="14" font-style="italic" lengthAdjust="spacing" textLength="109" x="265" y="541.8467">AbstractToArray</text></g><!--class Utils--><g id="elem_Utils"><rect codeLine="81" fill="#F1F1F1" height="32" id="Utils" rx="2.5" ry="2.5" style="stroke:#181818;stroke-width:0.5;" width="61" x="276" y="588"/><ellipse cx="291" cy="604" fill="#ADD1B2" rx="11" ry="11" style="stroke:#181818;stroke-width:1.0;"/><path d="M293.9688,609.6406 Q293.3906,609.9375 292.75,610.0781 Q292.1094,610.2344 291.4063,610.2344 Q288.9063,610.2344 287.5781,608.5938 Q286.2656,606.9375 286.2656,603.8125 Q286.2656,600.6875 287.5781,599.0313 Q288.9063,597.375 291.4063,597.375 Q292.1094,597.375 292.75,597.5313 Q293.4063,597.6875 293.9688,597.9844 L293.9688,600.7031 Q293.3438,600.125 292.75,599.8594 Q292.1563,599.5781 291.5313,599.5781 Q290.1875,599.5781 289.5,600.6563 Q288.8125,601.7188 288.8125,603.8125 Q288.8125,605.9063 289.5,606.9844 Q290.1875,608.0469 291.5313,608.0469 Q292.1563,608.0469 292.75,607.7813 Q293.3438,607.5 293.9688,606.9219 L293.9688,609.6406 Z " fill="#000000"/><text fill="#000000" font-family="sans-serif" font-size="14" lengthAdjust="spacing" textLength="29" x="305" y="608.8467">Utils</text></g><!--class PaymentGatewayRequester--><g id="elem_PaymentGatewayRequester"><rect codeLine="75" fill="#F1F1F1" height="32" id="PaymentGatewayRequester" rx="2.5" ry="2.5" style="stroke:#181818;stroke-width:0.5;" width="224" x="194.5" y="920"/><ellipse cx="209.5" cy="936" fill="#ADD1B2" rx="11" ry="11" style="stroke:#181818;stroke-width:1.0;"/><path d="M212.4688,941.6406 Q211.8906,941.9375 211.25,942.0781 Q210.6094,942.2344 209.9063,942.2344 Q207.4063,942.2344 206.0781,940.5938 Q204.7656,938.9375 204.7656,935.8125 Q204.7656,932.6875 206.0781,931.0313 Q207.4063,929.375 209.9063,929.375 Q210.6094,929.375 211.25,929.5313 Q211.9063,929.6875 212.4688,929.9844 L212.4688,932.7031 Q211.8438,932.125 211.25,931.8594 Q210.6563,931.5781 210.0313,931.5781 Q208.6875,931.5781 208,932.6563 Q207.3125,933.7188 207.3125,935.8125 Q207.3125,937.9063 208,938.9844 Q208.6875,940.0469 210.0313,940.0469 Q210.6563,940.0469 211.25,939.7813 Q211.8438,939.5 212.4688,938.9219 L212.4688,941.6406 Z " fill="#000000"/><text fill="#000000" font-family="sans-serif" font-size="14" lengthAdjust="spacing" textLength="192" x="223.5" y="940.8467">PaymentGatewayRequester</text></g><!--class Exception--><g id="elem_Exception"><rect fill="#F1F1F1" height="32" id="Exception" rx="2.5" ry="2.5" style="stroke:#181818;stroke-width:0.5;" width="100" x="7" y="271"/><ellipse cx="22" cy="287" fill="#ADD1B2" rx="11" ry="11" style="stroke:#181818;stroke-width:1.0;"/><path d="M24.9688,292.6406 Q24.3906,292.9375 23.75,293.0781 Q23.1094,293.2344 22.4063,293.2344 Q19.9063,293.2344 18.5781,291.5938 Q17.2656,289.9375 17.2656,286.8125 Q17.2656,283.6875 18.5781,282.0313 Q19.9063,280.375 22.4063,280.375 Q23.1094,280.375 23.75,280.5313 Q24.4063,280.6875 24.9688,280.9844 L24.9688,283.7031 Q24.3438,283.125 23.75,282.8594 Q23.1563,282.5781 22.5313,282.5781 Q21.1875,282.5781 20.5,283.6563 Q19.8125,284.7188 19.8125,286.8125 Q19.8125,288.9063 20.5,289.9844 Q21.1875,291.0469 22.5313,291.0469 Q23.1563,291.0469 23.75,290.7813 Q24.3438,290.5 24.9688,289.9219 L24.9688,292.6406 Z " fill="#000000"/><text fill="#000000" font-family="sans-serif" font-size="14" lengthAdjust="spacing" textLength="68" x="36" y="291.8467">Exception</text></g><!--reverse link Exception to CurlRequestException--><g id="link_Exception_CurlRequestException"><path d="M74,250.78 C74,250.78 74,220 74,220 C74,220 148.59,220 213.27,220 " fill="none" id="Exception-backto-CurlRequestException" style="stroke:#516F42;stroke-width:1.0;"/><polygon fill="none" points="81,250.78,74,270.78,67,250.78,81,250.78" style="stroke:#516F42;stroke-width:1.0;"/></g><!--reverse link Exception to VariableLengthException--><g id="link_Exception_VariableLengthException"><path d="M127.19,281.67 C127.19,281.67 205.35,281.67 205.35,281.67 " fill="none" id="Exception-backto-VariableLengthException" style="stroke:#516F42;stroke-width:1.0;"/><polygon fill="none" points="127.19,288.67,107.19,281.67,127.19,274.67,127.19,288.67" style="stroke:#516F42;stroke-width:1.0;"/></g><!--reverse link Exception to VariableNotContainsException--><g id="link_Exception_VariableNotContainsException"><path d="M127.15,292.33 C127.15,292.33 197,292.33 197,292.33 C197,292.33 197,319.53 197,337.8 " fill="none" id="Exception-backto-VariableNotContainsException" style="stroke:#516F42;stroke-width:1.0;"/><polygon fill="none" points="127.15,299.33,107.15,292.33,127.15,285.33,127.15,299.33" style="stroke:#516F42;stroke-width:1.0;"/></g><!--reverse link Exception to VariableNotGuidException--><g id="link_Exception_VariableNotGuidException"><path d="M57,323.16 C57,323.16 57,421 57,421 C57,421 133.23,421 201.41,421 " fill="none" id="Exception-backto-VariableNotGuidException" style="stroke:#516F42;stroke-width:1.0;"/><polygon fill="none" points="50,323.16,57,303.16,64,323.16,50,323.16" style="stroke:#516F42;stroke-width:1.0;"/></g><!--reverse link Exception to VariableNotUrlException--><g id="link_Exception_VariableNotUrlException"><path d="M41,250.84 C41,250.84 41,153 41,153 C41,153 132.76,153 208.39,153 " fill="none" id="Exception-backto-VariableNotUrlException" style="stroke:#516F42;stroke-width:1.0;"/><polygon fill="none" points="48,250.84,41,270.84,34,250.84,48,250.84" style="stroke:#516F42;stroke-width:1.0;"/></g><!--reverse link AbstractToArray to PaymentNotifyData--><g id="link_AbstractToArray_PaymentNotifyData"><path d="M397.33,533 C397.33,533 562,533 562,533 C562,533 562,308.49 562,245.34 " fill="none" id="AbstractToArray-backto-PaymentNotifyData" style="stroke:#516F42;stroke-width:1.0;"/><polygon fill="none" points="397.33,540,377.33,533,397.33,526,397.33,540" style="stroke:#516F42;stroke-width:1.0;"/></g><!--reverse link AbstractToArray to Basket--><g id="link_AbstractToArray_Basket"><path d="M330,500.78 C330,500.78 330,470 330,470 C330,470 511.99,470 594.81,470 " fill="none" id="AbstractToArray-backto-Basket" style="stroke:#516F42;stroke-width:1.0;"/><polygon fill="none" points="337,500.78,330,520.78,323,500.78,337,500.78" style="stroke:#516F42;stroke-width:1.0;"/></g><!--reverse link AbstractToArray to BasketHeader--><g id="link_AbstractToArray_BasketHeader"><path d="M397.38,537 C397.38,537 569.83,537 569.83,537 " fill="none" id="AbstractToArray-backto-BasketHeader" style="stroke:#516F42;stroke-width:1.0;"/><polygon fill="none" points="397.38,544,377.38,537,397.38,530,397.38,544" style="stroke:#516F42;stroke-width:1.0;"/></g><!--reverse link AbstractToArray to BasketItem--><g id="link_AbstractToArray_BasketItem"><path d="M369,573.22 C369,573.22 369,604 369,604 C369,604 501.97,604 579.88,604 " fill="none" id="AbstractToArray-backto-BasketItem" style="stroke:#516F42;stroke-width:1.0;"/><polygon fill="none" points="362,573.22,369,553.22,376,573.22,362,573.22" style="stroke:#516F42;stroke-width:1.0;"/></g><!--reverse link AbstractToArray to CardHolder--><g id="link_AbstractToArray_CardHolder"><path d="M353,573.16 C353,573.16 353,671 353,671 C353,671 498.29,671 580.29,671 " fill="none" id="AbstractToArray-backto-CardHolder" style="stroke:#516F42;stroke-width:1.0;"/><polygon fill="none" points="346,573.16,353,553.16,360,573.16,346,573.16" style="stroke:#516F42;stroke-width:1.0;"/></g><!--reverse link AbstractToArray to CardHolderPhoneNumber--><g id="link_AbstractToArray_CardHolderPhoneNumber"><path d="M397.03,541 C397.03,541 547,541 547,541 C547,541 547,674.83 547,721.88 " fill="none" id="AbstractToArray-backto-CardHolderPhoneNumber" style="stroke:#516F42;stroke-width:1.0;"/><polygon fill="none" points="397.03,548,377.03,541,397.03,534,397.03,548" style="stroke:#516F42;stroke-width:1.0;"/></g><!--reverse link AbstractToArray to CustomerBasket--><g id="link_AbstractToArray_CustomerBasket"><path d="M345,573.36 C345,573.36 345,805 345,805 C345,805 474.77,805 560.69,805 " fill="none" id="AbstractToArray-backto-CustomerBasket" style="stroke:#516F42;stroke-width:1.0;"/><polygon fill="none" points="338,573.36,345,553.36,352,573.36,338,573.36" style="stroke:#516F42;stroke-width:1.0;"/></g><!--reverse link AbstractToArray to DanubePay--><g id="link_AbstractToArray_DanubePay"><path d="M397.2,529 C397.2,529 539,529 539,529 C539,529 539,345 539,345 C539,345 558.2,345 579.43,345 " fill="none" id="AbstractToArray-backto-DanubePay" style="stroke:#516F42;stroke-width:1.0;"/><polygon fill="none" points="397.2,536,377.2,529,397.2,522,397.2,536" style="stroke:#516F42;stroke-width:1.0;"/></g><!--reverse link AbstractToArray to Payment--><g id="link_AbstractToArray_Payment"><path d="M397.05,525 C397.05,525 415,525 415,525 C415,525 415,412 415,412 C415,412 524.37,412 588.88,412 " fill="none" id="AbstractToArray-backto-Payment" style="stroke:#516F42;stroke-width:1.0;"/><polygon fill="none" points="397.05,532,377.05,525,397.05,518,397.05,532" style="stroke:#516F42;stroke-width:1.0;"/></g><!--reverse link AbstractToArray to PaymentInfoRequest--><g id="link_AbstractToArray_PaymentInfoRequest"><path d="M361,573.23 C361,573.23 361,638 361,638 C361,638 649.77,638 799.79,638 " fill="none" id="AbstractToArray-backto-PaymentInfoRequest" style="stroke:#516F42;stroke-width:1.0;"/><polygon fill="none" points="354,573.23,361,553.23,368,573.23,354,573.23" style="stroke:#516F42;stroke-width:1.0;"/></g><!--reverse link PaymentGatewayRequest to PaymentInfoRequest--><g id="link_PaymentGatewayRequest_PaymentInfoRequest"><path d="M760.1,866.67 C760.1,866.67 888,866.67 888,866.67 C888,866.67 888,706.13 888,654.08 " fill="none" id="PaymentGatewayRequest-backto-PaymentInfoRequest" style="stroke:#516F42;stroke-width:1.0;stroke-dasharray:7.0,7.0;"/><polygon fill="none" points="760.1,873.67,740.1,866.67,760.1,859.67,760.1,873.67" style="stroke:#516F42;stroke-width:1.0;"/></g><!--reverse link AbstractToArray to PaymentRequest--><g id="link_AbstractToArray_PaymentRequest"><path d="M283,500.73 C283,500.73 283,446 283,446 C283,446 649.96,446 812.29,446 " fill="none" id="AbstractToArray-backto-PaymentRequest" style="stroke:#516F42;stroke-width:1.0;"/><polygon fill="none" points="290,500.73,283,520.73,276,500.73,290,500.73" style="stroke:#516F42;stroke-width:1.0;"/></g><!--reverse link PaymentGatewayRequest to PaymentRequest--><g id="link_PaymentGatewayRequest_PaymentRequest"><path d="M760.04,877.33 C760.04,877.33 770,877.33 770,877.33 C770,877.33 770,462 770,462 C770,462 789.29,462 812.27,462 " fill="none" id="PaymentGatewayRequest-backto-PaymentRequest" style="stroke:#516F42;stroke-width:1.0;stroke-dasharray:7.0,7.0;"/><polygon fill="none" points="760.04,884.33,740.04,877.33,760.04,870.33,760.04,884.33" style="stroke:#516F42;stroke-width:1.0;"/></g><!--reverse link AbstractToArray to PaymentInfoResponse--><g id="link_AbstractToArray_PaymentInfoResponse"><path d="M397.06,545 C397.06,545 496,545 496,545 C496,545 496,1046 496,1046 C496,1046 515.96,1046 540.75,1046 " fill="none" id="AbstractToArray-backto-PaymentInfoResponse" style="stroke:#516F42;stroke-width:1.0;"/><polygon fill="none" points="397.06,552,377.06,545,397.06,538,397.06,552" style="stroke:#516F42;stroke-width:1.0;"/></g><!--reverse link AbstractToArray to PaymentResponse--><g id="link_AbstractToArray_PaymentResponse"><path d="M397.42,549 C397.42,549 461,549 461,549 C461,549 461,1113 461,1113 C461,1113 508.14,1113 553.35,1113 " fill="none" id="AbstractToArray-backto-PaymentResponse" style="stroke:#516F42;stroke-width:1.0;"/><polygon fill="none" points="397.42,556,377.42,549,397.42,542,397.42,556" style="stroke:#516F42;stroke-width:1.0;"/></g><!--SRC=[rPRDRjim3CVlUWe1Uu9zTFVK6Pe2Gn6iwqwwC34T2v54ZQAN6iFUVNBYDDsGOjcQD9uFjaHIV_uaKuAqrcbfGmG6hqVCj2h84UjN5w_VL-_UAFtO3tEntwoqbyGbyY61C5ykc9fGzi7L-jaVFBRWAPG7Ys_Z3ycHQYXfPSD2L-0IAlMqQ-TnDg2q4JMnrAHgMw967wNL7lqCEIc7bMWXpNPHYoujOsQZe1AA3k0nHPZZBNPoaj6CKKhD7QIKcwEtjrH9zvr2EwrZuIo6tFzmFyVOgHXJDEm-uTS6apnODTuBXh9JsDc-gnz_9Vm5sCBCuKSC2wbFetr3Kb0Gi26TBC5LOykJYT-nEuBs15r4DYPRVJPSWU0Asb6qnkGSjceVN9lk60GUPNjAzawiozPP4ixxuJFbhGljiudwOZFc4j8or_10E2O8-KWO2isre3y_Im5SJiWDObrsBDEQ0juqtUau0Amc2NdaeHJp648pmnnnVfJUDnYGwr1HR_jd9kkZmqxiI4ozRujrx2d_3zErGP2hV8SPw8gcI27XzgAqwHrHzfVYxDNFjsD-etePeZqaUtzcFk_NUj0dqNyIVWRJPcZtJki1Fm40]--></g></svg>