<?xml version="1.0" encoding="us-ascii" standalone="no"?><svg xmlns="http://www.w3.org/2000/svg" xmlns:xlink="http://www.w3.org/1999/xlink" contentStyleType="text/css" height="1248px" preserveAspectRatio="none" style="width:1244px;height:1248px;background:#FFFFFF;" version="1.1" viewBox="0 0 1244 1248" width="1244px" zoomAndPan="magnify"><defs/><g><!--cluster A3Soft--><g id="cluster_A3Soft"><path d="M210.5,6 L264.5,6 A3.75,3.75 0 0 1 267,8.5 L274,28.2969 L1234.5,28.2969 A2.5,2.5 0 0 1 1237,30.7969 L1237,1238.5 A2.5,2.5 0 0 1 1234.5,1241 L210.5,1241 A2.5,2.5 0 0 1 208,1238.5 L208,8.5 A2.5,2.5 0 0 1 210.5,6 " fill="none" style="stroke:#000000;stroke-width:1.5;"/><line style="stroke:#000000;stroke-width:1.5;" x1="208" x2="274" y1="28.2969" y2="28.2969"/><text fill="#000000" font-family="sans-serif" font-size="14" font-weight="bold" lengthAdjust="spacing" textLength="53" x="212" y="20.9951">A3Soft</text></g><!--cluster A3PayPhpClient--><g id="cluster_A3PayPhpClient"><path d="M234.5,49 L359.5,49 A3.75,3.75 0 0 1 362,51.5 L369,71.2969 L1210.5,71.2969 A2.5,2.5 0 0 1 1213,73.7969 L1213,1214.5 A2.5,2.5 0 0 1 1210.5,1217 L234.5,1217 A2.5,2.5 0 0 1 232,1214.5 L232,51.5 A2.5,2.5 0 0 1 234.5,49 " fill="none" style="stroke:#000000;stroke-width:1.5;"/><line style="stroke:#000000;stroke-width:1.5;" x1="232" x2="369" y1="71.2969" y2="71.2969"/><text fill="#000000" font-family="sans-serif" font-size="14" font-weight="bold" lengthAdjust="spacing" textLength="124" x="236" y="63.9951">A3PayPhpClient</text></g><!--cluster Exception--><g id="cluster_Exception"><path d="M290.5,102 L368.5,102 A3.75,3.75 0 0 1 371,104.5 L378,124.2969 L556.5,124.2969 A2.5,2.5 0 0 1 559,126.7969 L559,450.5 A2.5,2.5 0 0 1 556.5,453 L290.5,453 A2.5,2.5 0 0 1 288,450.5 L288,104.5 A2.5,2.5 0 0 1 290.5,102 " fill="none" style="stroke:#000000;stroke-width:1.5;"/><line style="stroke:#000000;stroke-width:1.5;" x1="288" x2="378" y1="124.2969" y2="124.2969"/><text fill="#000000" font-family="sans-serif" font-size="14" font-weight="bold" lengthAdjust="spacing" textLength="77" x="292" y="116.9951">Exception</text></g><!--cluster Helper--><g id="cluster_Helper"><path d="M617.5,92 L670.5,92 A3.75,3.75 0 0 1 673,94.5 L680,114.2969 L1186.5,114.2969 A2.5,2.5 0 0 1 1189,116.7969 L1189,1190.5 A2.5,2.5 0 0 1 1186.5,1193 L617.5,1193 A2.5,2.5 0 0 1 615,1190.5 L615,94.5 A2.5,2.5 0 0 1 617.5,92 " fill="none" style="stroke:#000000;stroke-width:1.5;"/><line style="stroke:#000000;stroke-width:1.5;" x1="615" x2="680" y1="114.2969" y2="114.2969"/><text fill="#000000" font-family="sans-serif" font-size="14" font-weight="bold" lengthAdjust="spacing" textLength="52" x="619" y="106.9951">Helper</text></g><!--cluster PaymentGatewayApi--><g id="cluster_PaymentGatewayApi"><path d="M641.5,135 L804.5,135 A3.75,3.75 0 0 1 807,137.5 L814,157.2969 L1162.5,157.2969 A2.5,2.5 0 0 1 1165,159.7969 L1165,1166.5 A2.5,2.5 0 0 1 1162.5,1169 L641.5,1169 A2.5,2.5 0 0 1 639,1166.5 L639,137.5 A2.5,2.5 0 0 1 641.5,135 " fill="none" style="stroke:#000000;stroke-width:1.5;"/><line style="stroke:#000000;stroke-width:1.5;" x1="639" x2="814" y1="157.2969" y2="157.2969"/><text fill="#000000" font-family="sans-serif" font-size="14" font-weight="bold" lengthAdjust="spacing" textLength="162" x="643" y="149.9951">PaymentGatewayApi</text></g><!--cluster Notify--><g id="cluster_Notify"><path d="M689.5,178 L736.5,178 A3.75,3.75 0 0 1 739,180.5 L746,200.2969 L878.5,200.2969 A2.5,2.5 0 0 1 881,202.7969 L881,258.5 A2.5,2.5 0 0 1 878.5,261 L689.5,261 A2.5,2.5 0 0 1 687,258.5 L687,180.5 A2.5,2.5 0 0 1 689.5,178 " fill="none" style="stroke:#000000;stroke-width:1.5;"/><line style="stroke:#000000;stroke-width:1.5;" x1="687" x2="746" y1="200.2969" y2="200.2969"/><text fill="#000000" font-family="sans-serif" font-size="14" font-weight="bold" lengthAdjust="spacing" textLength="46" x="691" y="192.9951">Notify</text></g><!--cluster Request--><g id="cluster_Request"><path d="M665.5,285 L731.5,285 A3.75,3.75 0 0 1 734,287.5 L741,307.2969 L1138.5,307.2969 A2.5,2.5 0 0 1 1141,309.7969 L1141,901.5 A2.5,2.5 0 0 1 1138.5,904 L665.5,904 A2.5,2.5 0 0 1 663,901.5 L663,287.5 A2.5,2.5 0 0 1 665.5,285 " fill="none" style="stroke:#000000;stroke-width:1.5;"/><line style="stroke:#000000;stroke-width:1.5;" x1="663" x2="741" y1="307.2969" y2="307.2969"/><text fill="#000000" font-family="sans-serif" font-size="14" font-weight="bold" lengthAdjust="spacing" textLength="65" x="667" y="299.9951">Request</text></g><!--cluster Response--><g id="cluster_Response"><path d="M676.5,928 L755.5,928 A3.75,3.75 0 0 1 758,930.5 L765,950.2969 L891.5,950.2969 A2.5,2.5 0 0 1 894,952.7969 L894,1142.5 A2.5,2.5 0 0 1 891.5,1145 L676.5,1145 A2.5,2.5 0 0 1 674,1142.5 L674,930.5 A2.5,2.5 0 0 1 676.5,928 " fill="none" style="stroke:#000000;stroke-width:1.5;"/><line style="stroke:#000000;stroke-width:1.5;" x1="674" x2="765" y1="950.2969" y2="950.2969"/><text fill="#000000" font-family="sans-serif" font-size="14" font-weight="bold" lengthAdjust="spacing" textLength="78" x="678" y="942.9951">Response</text></g><!--cluster Util--><g id="cluster_Util"><path d="M339.5,486 L365.5,486 A3.75,3.75 0 0 1 368,488.5 L375,508.2969 L507.5,508.2969 A2.5,2.5 0 0 1 510,510.7969 L510,633.5 A2.5,2.5 0 0 1 507.5,636 L339.5,636 A2.5,2.5 0 0 1 337,633.5 L337,488.5 A2.5,2.5 0 0 1 339.5,486 " fill="none" style="stroke:#000000;stroke-width:1.5;"/><line style="stroke:#000000;stroke-width:1.5;" x1="337" x2="375" y1="508.2969" y2="508.2969"/><text fill="#000000" font-family="sans-serif" font-size="14" font-weight="bold" lengthAdjust="spacing" textLength="25" x="341" y="500.9951">Util</text></g><!--cluster PaymentGatewayApi--><g id="cluster_PaymentGatewayApi"><path d="M298,702 L461,702 A3.75,3.75 0 0 1 463.5,704.5 L470.5,724.2969 L549,724.2969 A2.5,2.5 0 0 1 551.5,726.7969 L551.5,782.5 A2.5,2.5 0 0 1 549,785 L298,785 A2.5,2.5 0 0 1 295.5,782.5 L295.5,704.5 A2.5,2.5 0 0 1 298,702 " fill="none" style="stroke:#000000;stroke-width:1.5;"/><line style="stroke:#000000;stroke-width:1.5;" x1="295.5" x2="470.5" y1="724.2969" y2="724.2969"/><text fill="#000000" font-family="sans-serif" font-size="14" font-weight="bold" lengthAdjust="spacing" textLength="162" x="299.5" y="716.9951">PaymentGatewayApi</text></g><!--cluster Tests--><g id="cluster_Tests"><path d="M258.5,893 L303.5,893 A3.75,3.75 0 0 1 306,895.5 L313,915.2969 L588.5,915.2969 A2.5,2.5 0 0 1 591,917.7969 L591,1147.5 A2.5,2.5 0 0 1 588.5,1150 L258.5,1150 A2.5,2.5 0 0 1 256,1147.5 L256,895.5 A2.5,2.5 0 0 1 258.5,893 " fill="none" style="stroke:#000000;stroke-width:1.5;"/><line style="stroke:#000000;stroke-width:1.5;" x1="256" x2="313" y1="915.2969" y2="915.2969"/><text fill="#000000" font-family="sans-serif" font-size="14" font-weight="bold" lengthAdjust="spacing" textLength="44" x="260" y="907.9951">Tests</text></g><!--cluster PaymentGatewayApi--><g id="cluster_PaymentGatewayApi"><path d="M282.5,936 L445.5,936 A3.75,3.75 0 0 1 448,938.5 L455,958.2969 L564.5,958.2969 A2.5,2.5 0 0 1 567,960.7969 L567,1016.5 A2.5,2.5 0 0 1 564.5,1019 L282.5,1019 A2.5,2.5 0 0 1 280,1016.5 L280,938.5 A2.5,2.5 0 0 1 282.5,936 " fill="none" style="stroke:#000000;stroke-width:1.5;"/><line style="stroke:#000000;stroke-width:1.5;" x1="280" x2="455" y1="958.2969" y2="958.2969"/><text fill="#000000" font-family="sans-serif" font-size="14" font-weight="bold" lengthAdjust="spacing" textLength="162" x="284" y="950.9951">PaymentGatewayApi</text></g><!--cluster Utils--><g id="cluster_Utils"><path d="M364,1043 L399,1043 A3.75,3.75 0 0 1 401.5,1045.5 L408.5,1065.2969 L483,1065.2969 A2.5,2.5 0 0 1 485.5,1067.7969 L485.5,1123.5 A2.5,2.5 0 0 1 483,1126 L364,1126 A2.5,2.5 0 0 1 361.5,1123.5 L361.5,1045.5 A2.5,2.5 0 0 1 364,1043 " fill="none" style="stroke:#000000;stroke-width:1.5;"/><line style="stroke:#000000;stroke-width:1.5;" x1="361.5" x2="408.5" y1="1065.2969" y2="1065.2969"/><text fill="#000000" font-family="sans-serif" font-size="14" font-weight="bold" lengthAdjust="spacing" textLength="34" x="365.5" y="1057.9951">Utils</text></g><!--cluster PHPUnit--><g id="cluster_PHPUnit"><path d="M8.5,947 L71.5,947 A3.75,3.75 0 0 1 74,949.5 L81,969.2969 L181.5,969.2969 A2.5,2.5 0 0 1 184,971.7969 L184,1094.5 A2.5,2.5 0 0 1 181.5,1097 L8.5,1097 A2.5,2.5 0 0 1 6,1094.5 L6,949.5 A2.5,2.5 0 0 1 8.5,947 " fill="none" style="stroke:#000000;stroke-width:1.5;"/><line style="stroke:#000000;stroke-width:1.5;" x1="6" x2="81" y1="969.2969" y2="969.2969"/><text fill="#000000" font-family="sans-serif" font-size="14" font-weight="bold" lengthAdjust="spacing" textLength="62" x="10" y="961.9951">PHPUnit</text></g><!--cluster Framework--><g id="cluster_Framework"><path d="M32.5,990 L122.5,990 A3.75,3.75 0 0 1 125,992.5 L132,1012.2969 L157.5,1012.2969 A2.5,2.5 0 0 1 160,1014.7969 L160,1070.5 A2.5,2.5 0 0 1 157.5,1073 L32.5,1073 A2.5,2.5 0 0 1 30,1070.5 L30,992.5 A2.5,2.5 0 0 1 32.5,990 " fill="none" style="stroke:#000000;stroke-width:1.5;"/><line style="stroke:#000000;stroke-width:1.5;" x1="30" x2="132" y1="1012.2969" y2="1012.2969"/><text fill="#000000" font-family="sans-serif" font-size="14" font-weight="bold" lengthAdjust="spacing" textLength="89" x="34" y="1004.9951">Framework</text></g><!--class CurlRequestException--><g id="elem_CurlRequestException"><rect codeLine="15" fill="#F1F1F1" height="32" id="CurlRequestException" rx="2.5" ry="2.5" style="stroke:#181818;stroke-width:0.5;" width="186" x="330.5" y="137"/><ellipse cx="345.5" cy="153" fill="#ADD1B2" rx="11" ry="11" style="stroke:#181818;stroke-width:1.0;"/><path d="M348.4688,158.6406 Q347.8906,158.9375 347.25,159.0781 Q346.6094,159.2344 345.9063,159.2344 Q343.4063,159.2344 342.0781,157.5938 Q340.7656,155.9375 340.7656,152.8125 Q340.7656,149.6875 342.0781,148.0313 Q343.4063,146.375 345.9063,146.375 Q346.6094,146.375 347.25,146.5313 Q347.9063,146.6875 348.4688,146.9844 L348.4688,149.7031 Q347.8438,149.125 347.25,148.8594 Q346.6563,148.5781 346.0313,148.5781 Q344.6875,148.5781 344,149.6563 Q343.3125,150.7188 343.3125,152.8125 Q343.3125,154.9063 344,155.9844 Q344.6875,157.0469 346.0313,157.0469 Q346.6563,157.0469 347.25,156.7813 Q347.8438,156.5 348.4688,155.9219 L348.4688,158.6406 Z " fill="#000000"/><text fill="#000000" font-family="sans-serif" font-size="14" lengthAdjust="spacing" textLength="154" x="359.5" y="157.8467">CurlRequestException</text></g><!--class VariableLengthException--><g id="elem_VariableLengthException"><rect codeLine="18" fill="#F1F1F1" height="32" id="VariableLengthException" rx="2.5" ry="2.5" style="stroke:#181818;stroke-width:0.5;" width="202" x="322.5" y="204"/><ellipse cx="337.5" cy="220" fill="#ADD1B2" rx="11" ry="11" style="stroke:#181818;stroke-width:1.0;"/><path d="M340.4688,225.6406 Q339.8906,225.9375 339.25,226.0781 Q338.6094,226.2344 337.9063,226.2344 Q335.4063,226.2344 334.0781,224.5938 Q332.7656,222.9375 332.7656,219.8125 Q332.7656,216.6875 334.0781,215.0313 Q335.4063,213.375 337.9063,213.375 Q338.6094,213.375 339.25,213.5313 Q339.9063,213.6875 340.4688,213.9844 L340.4688,216.7031 Q339.8438,216.125 339.25,215.8594 Q338.6563,215.5781 338.0313,215.5781 Q336.6875,215.5781 336,216.6563 Q335.3125,217.7188 335.3125,219.8125 Q335.3125,221.9063 336,222.9844 Q336.6875,224.0469 338.0313,224.0469 Q338.6563,224.0469 339.25,223.7813 Q339.8438,223.5 340.4688,222.9219 L340.4688,225.6406 Z " fill="#000000"/><text fill="#000000" font-family="sans-serif" font-size="14" lengthAdjust="spacing" textLength="170" x="351.5" y="224.8467">VariableLengthException</text></g><!--class VariableNotContainsException--><g id="elem_VariableNotContainsException"><rect codeLine="21" fill="#F1F1F1" height="32" id="VariableNotContainsException" rx="2.5" ry="2.5" style="stroke:#181818;stroke-width:0.5;" width="239" x="304" y="271"/><ellipse cx="319" cy="287" fill="#ADD1B2" rx="11" ry="11" style="stroke:#181818;stroke-width:1.0;"/><path d="M321.9688,292.6406 Q321.3906,292.9375 320.75,293.0781 Q320.1094,293.2344 319.4063,293.2344 Q316.9063,293.2344 315.5781,291.5938 Q314.2656,289.9375 314.2656,286.8125 Q314.2656,283.6875 315.5781,282.0313 Q316.9063,280.375 319.4063,280.375 Q320.1094,280.375 320.75,280.5313 Q321.4063,280.6875 321.9688,280.9844 L321.9688,283.7031 Q321.3438,283.125 320.75,282.8594 Q320.1563,282.5781 319.5313,282.5781 Q318.1875,282.5781 317.5,283.6563 Q316.8125,284.7188 316.8125,286.8125 Q316.8125,288.9063 317.5,289.9844 Q318.1875,291.0469 319.5313,291.0469 Q320.1563,291.0469 320.75,290.7813 Q321.3438,290.5 321.9688,289.9219 L321.9688,292.6406 Z " fill="#000000"/><text fill="#000000" font-family="sans-serif" font-size="14" lengthAdjust="spacing" textLength="207" x="333" y="291.8467">VariableNotContainsException</text></g><!--class VariableNotGuidException--><g id="elem_VariableNotGuidException"><rect codeLine="24" fill="#F1F1F1" height="32" id="VariableNotGuidException" rx="2.5" ry="2.5" style="stroke:#181818;stroke-width:0.5;" width="210" x="318.5" y="338"/><ellipse cx="333.5" cy="354" fill="#ADD1B2" rx="11" ry="11" style="stroke:#181818;stroke-width:1.0;"/><path d="M336.4688,359.6406 Q335.8906,359.9375 335.25,360.0781 Q334.6094,360.2344 333.9063,360.2344 Q331.4063,360.2344 330.0781,358.5938 Q328.7656,356.9375 328.7656,353.8125 Q328.7656,350.6875 330.0781,349.0313 Q331.4063,347.375 333.9063,347.375 Q334.6094,347.375 335.25,347.5313 Q335.9063,347.6875 336.4688,347.9844 L336.4688,350.7031 Q335.8438,350.125 335.25,349.8594 Q334.6563,349.5781 334.0313,349.5781 Q332.6875,349.5781 332,350.6563 Q331.3125,351.7188 331.3125,353.8125 Q331.3125,355.9063 332,356.9844 Q332.6875,358.0469 334.0313,358.0469 Q334.6563,358.0469 335.25,357.7813 Q335.8438,357.5 336.4688,356.9219 L336.4688,359.6406 Z " fill="#000000"/><text fill="#000000" font-family="sans-serif" font-size="14" lengthAdjust="spacing" textLength="178" x="347.5" y="358.8467">VariableNotGuidException</text></g><!--class VariableNotUrlException--><g id="elem_VariableNotUrlException"><rect codeLine="27" fill="#F1F1F1" height="32" id="VariableNotUrlException" rx="2.5" ry="2.5" style="stroke:#181818;stroke-width:0.5;" width="196" x="325.5" y="405"/><ellipse cx="340.5" cy="421" fill="#ADD1B2" rx="11" ry="11" style="stroke:#181818;stroke-width:1.0;"/><path d="M343.4688,426.6406 Q342.8906,426.9375 342.25,427.0781 Q341.6094,427.2344 340.9063,427.2344 Q338.4063,427.2344 337.0781,425.5938 Q335.7656,423.9375 335.7656,420.8125 Q335.7656,417.6875 337.0781,416.0313 Q338.4063,414.375 340.9063,414.375 Q341.6094,414.375 342.25,414.5313 Q342.9063,414.6875 343.4688,414.9844 L343.4688,417.7031 Q342.8438,417.125 342.25,416.8594 Q341.6563,416.5781 341.0313,416.5781 Q339.6875,416.5781 339,417.6563 Q338.3125,418.7188 338.3125,420.8125 Q338.3125,422.9063 339,423.9844 Q339.6875,425.0469 341.0313,425.0469 Q341.6563,425.0469 342.25,424.7813 Q342.8438,424.5 343.4688,423.9219 L343.4688,426.6406 Z " fill="#000000"/><text fill="#000000" font-family="sans-serif" font-size="14" lengthAdjust="spacing" textLength="164" x="354.5" y="425.8467">VariableNotUrlException</text></g><!--class PaymentNotifyData--><g id="elem_PaymentNotifyData"><rect codeLine="30" fill="#F1F1F1" height="32" id="PaymentNotifyData" rx="2.5" ry="2.5" style="stroke:#181818;stroke-width:0.5;" width="162" x="703" y="213"/><ellipse cx="718" cy="229" fill="#ADD1B2" rx="11" ry="11" style="stroke:#181818;stroke-width:1.0;"/><path d="M720.9688,234.6406 Q720.3906,234.9375 719.75,235.0781 Q719.1094,235.2344 718.4063,235.2344 Q715.9063,235.2344 714.5781,233.5938 Q713.2656,231.9375 713.2656,228.8125 Q713.2656,225.6875 714.5781,224.0313 Q715.9063,222.375 718.4063,222.375 Q719.1094,222.375 719.75,222.5313 Q720.4063,222.6875 720.9688,222.9844 L720.9688,225.7031 Q720.3438,225.125 719.75,224.8594 Q719.1563,224.5781 718.5313,224.5781 Q717.1875,224.5781 716.5,225.6563 Q715.8125,226.7188 715.8125,228.8125 Q715.8125,230.9063 716.5,231.9844 Q717.1875,233.0469 718.5313,233.0469 Q719.1563,233.0469 719.75,232.7813 Q720.3438,232.5 720.9688,231.9219 L720.9688,234.6406 Z " fill="#000000"/><text fill="#000000" font-family="sans-serif" font-size="14" lengthAdjust="spacing" textLength="130" x="732" y="233.8467">PaymentNotifyData</text></g><!--class Basket--><g id="elem_Basket"><rect codeLine="33" fill="#F1F1F1" height="32" id="Basket" rx="2.5" ry="2.5" style="stroke:#181818;stroke-width:0.5;" width="80" x="744" y="454"/><ellipse cx="759" cy="470" fill="#ADD1B2" rx="11" ry="11" style="stroke:#181818;stroke-width:1.0;"/><path d="M761.9688,475.6406 Q761.3906,475.9375 760.75,476.0781 Q760.1094,476.2344 759.4063,476.2344 Q756.9063,476.2344 755.5781,474.5938 Q754.2656,472.9375 754.2656,469.8125 Q754.2656,466.6875 755.5781,465.0313 Q756.9063,463.375 759.4063,463.375 Q760.1094,463.375 760.75,463.5313 Q761.4063,463.6875 761.9688,463.9844 L761.9688,466.7031 Q761.3438,466.125 760.75,465.8594 Q760.1563,465.5781 759.5313,465.5781 Q758.1875,465.5781 757.5,466.6563 Q756.8125,467.7188 756.8125,469.8125 Q756.8125,471.9063 757.5,472.9844 Q758.1875,474.0469 759.5313,474.0469 Q760.1563,474.0469 760.75,473.7813 Q761.3438,473.5 761.9688,472.9219 L761.9688,475.6406 Z " fill="#000000"/><text fill="#000000" font-family="sans-serif" font-size="14" lengthAdjust="spacing" textLength="48" x="773" y="474.8467">Basket</text></g><!--class BasketHeader--><g id="elem_BasketHeader"><rect codeLine="36" fill="#F1F1F1" height="32" id="BasketHeader" rx="2.5" ry="2.5" style="stroke:#181818;stroke-width:0.5;" width="130" x="719" y="521"/><ellipse cx="734" cy="537" fill="#ADD1B2" rx="11" ry="11" style="stroke:#181818;stroke-width:1.0;"/><path d="M736.9688,542.6406 Q736.3906,542.9375 735.75,543.0781 Q735.1094,543.2344 734.4063,543.2344 Q731.9063,543.2344 730.5781,541.5938 Q729.2656,539.9375 729.2656,536.8125 Q729.2656,533.6875 730.5781,532.0313 Q731.9063,530.375 734.4063,530.375 Q735.1094,530.375 735.75,530.5313 Q736.4063,530.6875 736.9688,530.9844 L736.9688,533.7031 Q736.3438,533.125 735.75,532.8594 Q735.1563,532.5781 734.5313,532.5781 Q733.1875,532.5781 732.5,533.6563 Q731.8125,534.7188 731.8125,536.8125 Q731.8125,538.9063 732.5,539.9844 Q733.1875,541.0469 734.5313,541.0469 Q735.1563,541.0469 735.75,540.7813 Q736.3438,540.5 736.9688,539.9219 L736.9688,542.6406 Z " fill="#000000"/><text fill="#000000" font-family="sans-serif" font-size="14" lengthAdjust="spacing" textLength="98" x="748" y="541.8467">BasketHeader</text></g><!--class BasketItem--><g id="elem_BasketItem"><rect codeLine="39" fill="#F1F1F1" height="32" id="BasketItem" rx="2.5" ry="2.5" style="stroke:#181818;stroke-width:0.5;" width="110" x="729" y="588"/><ellipse cx="744" cy="604" fill="#ADD1B2" rx="11" ry="11" style="stroke:#181818;stroke-width:1.0;"/><path d="M746.9688,609.6406 Q746.3906,609.9375 745.75,610.0781 Q745.1094,610.2344 744.4063,610.2344 Q741.9063,610.2344 740.5781,608.5938 Q739.2656,606.9375 739.2656,603.8125 Q739.2656,600.6875 740.5781,599.0313 Q741.9063,597.375 744.4063,597.375 Q745.1094,597.375 745.75,597.5313 Q746.4063,597.6875 746.9688,597.9844 L746.9688,600.7031 Q746.3438,600.125 745.75,599.8594 Q745.1563,599.5781 744.5313,599.5781 Q743.1875,599.5781 742.5,600.6563 Q741.8125,601.7188 741.8125,603.8125 Q741.8125,605.9063 742.5,606.9844 Q743.1875,608.0469 744.5313,608.0469 Q745.1563,608.0469 745.75,607.7813 Q746.3438,607.5 746.9688,606.9219 L746.9688,609.6406 Z " fill="#000000"/><text fill="#000000" font-family="sans-serif" font-size="14" lengthAdjust="spacing" textLength="78" x="758" y="608.8467">BasketItem</text></g><!--class CardHolder--><g id="elem_CardHolder"><rect codeLine="42" fill="#F1F1F1" height="32" id="CardHolder" rx="2.5" ry="2.5" style="stroke:#181818;stroke-width:0.5;" width="109" x="729.5" y="655"/><ellipse cx="744.5" cy="671" fill="#ADD1B2" rx="11" ry="11" style="stroke:#181818;stroke-width:1.0;"/><path d="M747.4688,676.6406 Q746.8906,676.9375 746.25,677.0781 Q745.6094,677.2344 744.9063,677.2344 Q742.4063,677.2344 741.0781,675.5938 Q739.7656,673.9375 739.7656,670.8125 Q739.7656,667.6875 741.0781,666.0313 Q742.4063,664.375 744.9063,664.375 Q745.6094,664.375 746.25,664.5313 Q746.9063,664.6875 747.4688,664.9844 L747.4688,667.7031 Q746.8438,667.125 746.25,666.8594 Q745.6563,666.5781 745.0313,666.5781 Q743.6875,666.5781 743,667.6563 Q742.3125,668.7188 742.3125,670.8125 Q742.3125,672.9063 743,673.9844 Q743.6875,675.0469 745.0313,675.0469 Q745.6563,675.0469 746.25,674.7813 Q746.8438,674.5 747.4688,673.9219 L747.4688,676.6406 Z " fill="#000000"/><text fill="#000000" font-family="sans-serif" font-size="14" lengthAdjust="spacing" textLength="77" x="758.5" y="675.8467">CardHolder</text></g><!--class CardHolderPhoneNumber--><g id="elem_CardHolderPhoneNumber"><rect codeLine="45" fill="#F1F1F1" height="32" id="CardHolderPhoneNumber" rx="2.5" ry="2.5" style="stroke:#181818;stroke-width:0.5;" width="209" x="679.5" y="722"/><ellipse cx="694.5" cy="738" fill="#ADD1B2" rx="11" ry="11" style="stroke:#181818;stroke-width:1.0;"/><path d="M697.4688,743.6406 Q696.8906,743.9375 696.25,744.0781 Q695.6094,744.2344 694.9063,744.2344 Q692.4063,744.2344 691.0781,742.5938 Q689.7656,740.9375 689.7656,737.8125 Q689.7656,734.6875 691.0781,733.0313 Q692.4063,731.375 694.9063,731.375 Q695.6094,731.375 696.25,731.5313 Q696.9063,731.6875 697.4688,731.9844 L697.4688,734.7031 Q696.8438,734.125 696.25,733.8594 Q695.6563,733.5781 695.0313,733.5781 Q693.6875,733.5781 693,734.6563 Q692.3125,735.7188 692.3125,737.8125 Q692.3125,739.9063 693,740.9844 Q693.6875,742.0469 695.0313,742.0469 Q695.6563,742.0469 696.25,741.7813 Q696.8438,741.5 697.4688,740.9219 L697.4688,743.6406 Z " fill="#000000"/><text fill="#000000" font-family="sans-serif" font-size="14" lengthAdjust="spacing" textLength="177" x="708.5" y="742.8467">CardHolderPhoneNumber</text></g><!--class CustomerBasket--><g id="elem_CustomerBasket"><rect codeLine="48" fill="#F1F1F1" height="32" id="CustomerBasket" rx="2.5" ry="2.5" style="stroke:#181818;stroke-width:0.5;" width="148" x="710" y="789"/><ellipse cx="725" cy="805" fill="#ADD1B2" rx="11" ry="11" style="stroke:#181818;stroke-width:1.0;"/><path d="M727.9688,810.6406 Q727.3906,810.9375 726.75,811.0781 Q726.1094,811.2344 725.4063,811.2344 Q722.9063,811.2344 721.5781,809.5938 Q720.2656,807.9375 720.2656,804.8125 Q720.2656,801.6875 721.5781,800.0313 Q722.9063,798.375 725.4063,798.375 Q726.1094,798.375 726.75,798.5313 Q727.4063,798.6875 727.9688,798.9844 L727.9688,801.7031 Q727.3438,801.125 726.75,800.8594 Q726.1563,800.5781 725.5313,800.5781 Q724.1875,800.5781 723.5,801.6563 Q722.8125,802.7188 722.8125,804.8125 Q722.8125,806.9063 723.5,807.9844 Q724.1875,809.0469 725.5313,809.0469 Q726.1563,809.0469 726.75,808.7813 Q727.3438,808.5 727.9688,807.9219 L727.9688,810.6406 Z " fill="#000000"/><text fill="#000000" font-family="sans-serif" font-size="14" lengthAdjust="spacing" textLength="116" x="739" y="809.8467">CustomerBasket</text></g><!--class DanubePay--><g id="elem_DanubePay"><rect codeLine="51" fill="#F1F1F1" height="32" id="DanubePay" rx="2.5" ry="2.5" style="stroke:#181818;stroke-width:0.5;" width="111" x="728.5" y="320"/><ellipse cx="743.5" cy="336" fill="#ADD1B2" rx="11" ry="11" style="stroke:#181818;stroke-width:1.0;"/><path d="M746.4688,341.6406 Q745.8906,341.9375 745.25,342.0781 Q744.6094,342.2344 743.9063,342.2344 Q741.4063,342.2344 740.0781,340.5938 Q738.7656,338.9375 738.7656,335.8125 Q738.7656,332.6875 740.0781,331.0313 Q741.4063,329.375 743.9063,329.375 Q744.6094,329.375 745.25,329.5313 Q745.9063,329.6875 746.4688,329.9844 L746.4688,332.7031 Q745.8438,332.125 745.25,331.8594 Q744.6563,331.5781 744.0313,331.5781 Q742.6875,331.5781 742,332.6563 Q741.3125,333.7188 741.3125,335.8125 Q741.3125,337.9063 742,338.9844 Q742.6875,340.0469 744.0313,340.0469 Q744.6563,340.0469 745.25,339.7813 Q745.8438,339.5 746.4688,338.9219 L746.4688,341.6406 Z " fill="#000000"/><text fill="#000000" font-family="sans-serif" font-size="14" lengthAdjust="spacing" textLength="79" x="757.5" y="340.8467">DanubePay</text></g><!--class Payment--><g id="elem_Payment"><rect codeLine="54" fill="#F1F1F1" height="32" id="Payment" rx="2.5" ry="2.5" style="stroke:#181818;stroke-width:0.5;" width="92" x="738" y="387"/><ellipse cx="753" cy="403" fill="#ADD1B2" rx="11" ry="11" style="stroke:#181818;stroke-width:1.0;"/><path d="M755.9688,408.6406 Q755.3906,408.9375 754.75,409.0781 Q754.1094,409.2344 753.4063,409.2344 Q750.9063,409.2344 749.5781,407.5938 Q748.2656,405.9375 748.2656,402.8125 Q748.2656,399.6875 749.5781,398.0313 Q750.9063,396.375 753.4063,396.375 Q754.1094,396.375 754.75,396.5313 Q755.4063,396.6875 755.9688,396.9844 L755.9688,399.7031 Q755.3438,399.125 754.75,398.8594 Q754.1563,398.5781 753.5313,398.5781 Q752.1875,398.5781 751.5,399.6563 Q750.8125,400.7188 750.8125,402.8125 Q750.8125,404.9063 751.5,405.9844 Q752.1875,407.0469 753.5313,407.0469 Q754.1563,407.0469 754.75,406.7813 Q755.3438,406.5 755.9688,405.9219 L755.9688,408.6406 Z " fill="#000000"/><text fill="#000000" font-family="sans-serif" font-size="14" lengthAdjust="spacing" textLength="60" x="767" y="407.8467">Payment</text></g><!--class PaymentInfoRequest--><g id="elem_PaymentInfoRequest"><rect codeLine="57" fill="#F1F1F1" height="32" id="PaymentInfoRequest" rx="2.5" ry="2.5" style="stroke:#181818;stroke-width:0.5;" width="176" x="949" y="622"/><ellipse cx="964" cy="638" fill="#ADD1B2" rx="11" ry="11" style="stroke:#181818;stroke-width:1.0;"/><path d="M966.9688,643.6406 Q966.3906,643.9375 965.75,644.0781 Q965.1094,644.2344 964.4063,644.2344 Q961.9063,644.2344 960.5781,642.5938 Q959.2656,640.9375 959.2656,637.8125 Q959.2656,634.6875 960.5781,633.0313 Q961.9063,631.375 964.4063,631.375 Q965.1094,631.375 965.75,631.5313 Q966.4063,631.6875 966.9688,631.9844 L966.9688,634.7031 Q966.3438,634.125 965.75,633.8594 Q965.1563,633.5781 964.5313,633.5781 Q963.1875,633.5781 962.5,634.6563 Q961.8125,635.7188 961.8125,637.8125 Q961.8125,639.9063 962.5,640.9844 Q963.1875,642.0469 964.5313,642.0469 Q965.1563,642.0469 965.75,641.7813 Q966.3438,641.5 966.9688,640.9219 L966.9688,643.6406 Z " fill="#000000"/><text fill="#000000" font-family="sans-serif" font-size="14" lengthAdjust="spacing" textLength="144" x="978" y="642.8467">PaymentInfoRequest</text></g><!--class PaymentGatewayRequest--><g id="elem_PaymentGatewayRequest"><rect codeLine="63" fill="#F1F1F1" height="32" id="PaymentGatewayRequest" rx="2.5" ry="2.5" style="stroke:#181818;stroke-width:0.5;" width="210" x="679" y="856"/><ellipse cx="694" cy="872" fill="#B4A7E5" rx="11" ry="11" style="stroke:#181818;stroke-width:1.0;"/><path d="M689.9219,867.7656 L689.9219,865.6094 L697.3125,865.6094 L697.3125,867.7656 L694.8438,867.7656 L694.8438,875.8438 L697.3125,875.8438 L697.3125,878 L689.9219,878 L689.9219,875.8438 L692.3906,875.8438 L692.3906,867.7656 L689.9219,867.7656 Z " fill="#000000"/><text fill="#000000" font-family="sans-serif" font-size="14" font-style="italic" lengthAdjust="spacing" textLength="178" x="708" y="876.8467">PaymentGatewayRequest</text></g><!--class PaymentRequest--><g id="elem_PaymentRequest"><rect codeLine="60" fill="#F1F1F1" height="32" id="PaymentRequest" rx="2.5" ry="2.5" style="stroke:#181818;stroke-width:0.5;" width="151" x="961.5" y="438"/><ellipse cx="976.5" cy="454" fill="#ADD1B2" rx="11" ry="11" style="stroke:#181818;stroke-width:1.0;"/><path d="M979.4688,459.6406 Q978.8906,459.9375 978.25,460.0781 Q977.6094,460.2344 976.9063,460.2344 Q974.4063,460.2344 973.0781,458.5938 Q971.7656,456.9375 971.7656,453.8125 Q971.7656,450.6875 973.0781,449.0313 Q974.4063,447.375 976.9063,447.375 Q977.6094,447.375 978.25,447.5313 Q978.9063,447.6875 979.4688,447.9844 L979.4688,450.7031 Q978.8438,450.125 978.25,449.8594 Q977.6563,449.5781 977.0313,449.5781 Q975.6875,449.5781 975,450.6563 Q974.3125,451.7188 974.3125,453.8125 Q974.3125,455.9063 975,456.9844 Q975.6875,458.0469 977.0313,458.0469 Q977.6563,458.0469 978.25,457.7813 Q978.8438,457.5 979.4688,456.9219 L979.4688,459.6406 Z " fill="#000000"/><text fill="#000000" font-family="sans-serif" font-size="14" lengthAdjust="spacing" textLength="119" x="990.5" y="458.8467">PaymentRequest</text></g><!--class CurlResponse--><g id="elem_CurlResponse"><rect codeLine="66" fill="#F1F1F1" height="32" id="CurlResponse" rx="2.5" ry="2.5" style="stroke:#181818;stroke-width:0.5;" width="130" x="719" y="963"/><ellipse cx="734" cy="979" fill="#ADD1B2" rx="11" ry="11" style="stroke:#181818;stroke-width:1.0;"/><path d="M736.9688,984.6406 Q736.3906,984.9375 735.75,985.0781 Q735.1094,985.2344 734.4063,985.2344 Q731.9063,985.2344 730.5781,983.5938 Q729.2656,981.9375 729.2656,978.8125 Q729.2656,975.6875 730.5781,974.0313 Q731.9063,972.375 734.4063,972.375 Q735.1094,972.375 735.75,972.5313 Q736.4063,972.6875 736.9688,972.9844 L736.9688,975.7031 Q736.3438,975.125 735.75,974.8594 Q735.1563,974.5781 734.5313,974.5781 Q733.1875,974.5781 732.5,975.6563 Q731.8125,976.7188 731.8125,978.8125 Q731.8125,980.9063 732.5,981.9844 Q733.1875,983.0469 734.5313,983.0469 Q735.1563,983.0469 735.75,982.7813 Q736.3438,982.5 736.9688,981.9219 L736.9688,984.6406 Z " fill="#000000"/><text fill="#000000" font-family="sans-serif" font-size="14" lengthAdjust="spacing" textLength="98" x="748" y="983.8467">CurlResponse</text></g><!--class PaymentInfoResponse--><g id="elem_PaymentInfoResponse"><rect codeLine="69" fill="#F1F1F1" height="32" id="PaymentInfoResponse" rx="2.5" ry="2.5" style="stroke:#181818;stroke-width:0.5;" width="188" x="690" y="1030"/><ellipse cx="705" cy="1046" fill="#ADD1B2" rx="11" ry="11" style="stroke:#181818;stroke-width:1.0;"/><path d="M707.9688,1051.6406 Q707.3906,1051.9375 706.75,1052.0781 Q706.1094,1052.2344 705.4063,1052.2344 Q702.9063,1052.2344 701.5781,1050.5938 Q700.2656,1048.9375 700.2656,1045.8125 Q700.2656,1042.6875 701.5781,1041.0313 Q702.9063,1039.375 705.4063,1039.375 Q706.1094,1039.375 706.75,1039.5313 Q707.4063,1039.6875 707.9688,1039.9844 L707.9688,1042.7031 Q707.3438,1042.125 706.75,1041.8594 Q706.1563,1041.5781 705.5313,1041.5781 Q704.1875,1041.5781 703.5,1042.6563 Q702.8125,1043.7188 702.8125,1045.8125 Q702.8125,1047.9063 703.5,1048.9844 Q704.1875,1050.0469 705.5313,1050.0469 Q706.1563,1050.0469 706.75,1049.7813 Q707.3438,1049.5 707.9688,1048.9219 L707.9688,1051.6406 Z " fill="#000000"/><text fill="#000000" font-family="sans-serif" font-size="14" lengthAdjust="spacing" textLength="156" x="719" y="1050.8467">PaymentInfoResponse</text></g><!--class PaymentResponse--><g id="elem_PaymentResponse"><rect codeLine="72" fill="#F1F1F1" height="32" id="PaymentResponse" rx="2.5" ry="2.5" style="stroke:#181818;stroke-width:0.5;" width="163" x="702.5" y="1097"/><ellipse cx="717.5" cy="1113" fill="#ADD1B2" rx="11" ry="11" style="stroke:#181818;stroke-width:1.0;"/><path d="M720.4688,1118.6406 Q719.8906,1118.9375 719.25,1119.0781 Q718.6094,1119.2344 717.9063,1119.2344 Q715.4063,1119.2344 714.0781,1117.5938 Q712.7656,1115.9375 712.7656,1112.8125 Q712.7656,1109.6875 714.0781,1108.0313 Q715.4063,1106.375 717.9063,1106.375 Q718.6094,1106.375 719.25,1106.5313 Q719.9063,1106.6875 720.4688,1106.9844 L720.4688,1109.7031 Q719.8438,1109.125 719.25,1108.8594 Q718.6563,1108.5781 718.0313,1108.5781 Q716.6875,1108.5781 716,1109.6563 Q715.3125,1110.7188 715.3125,1112.8125 Q715.3125,1114.9063 716,1115.9844 Q716.6875,1117.0469 718.0313,1117.0469 Q718.6563,1117.0469 719.25,1116.7813 Q719.8438,1116.5 720.4688,1115.9219 L720.4688,1118.6406 Z " fill="#000000"/><text fill="#000000" font-family="sans-serif" font-size="14" lengthAdjust="spacing" textLength="131" x="731.5" y="1117.8467">PaymentResponse</text></g><!--class AbstractToArray--><g id="elem_AbstractToArray"><rect codeLine="78" fill="#F1F1F1" height="32" id="AbstractToArray" rx="2.5" ry="2.5" style="stroke:#181818;stroke-width:0.5;" width="141" x="353" y="521"/><ellipse cx="368" cy="537" fill="#A9DCDF" rx="11" ry="11" style="stroke:#181818;stroke-width:1.0;"/><path d="M368.1094,532.3438 L366.9531,537.4219 L369.2813,537.4219 L368.1094,532.3438 Z M366.625,530.1094 L369.6094,530.1094 L372.9688,542.5 L370.5156,542.5 L369.75,539.4375 L366.4688,539.4375 L365.7188,542.5 L363.2813,542.5 L366.625,530.1094 Z " fill="#000000"/><text fill="#000000" font-family="sans-serif" font-size="14" font-style="italic" lengthAdjust="spacing" textLength="109" x="382" y="541.8467">AbstractToArray</text></g><!--class Utils--><g id="elem_Utils"><rect codeLine="81" fill="#F1F1F1" height="32" id="Utils" rx="2.5" ry="2.5" style="stroke:#181818;stroke-width:0.5;" width="61" x="393" y="588"/><ellipse cx="408" cy="604" fill="#ADD1B2" rx="11" ry="11" style="stroke:#181818;stroke-width:1.0;"/><path d="M410.9688,609.6406 Q410.3906,609.9375 409.75,610.0781 Q409.1094,610.2344 408.4063,610.2344 Q405.9063,610.2344 404.5781,608.5938 Q403.2656,606.9375 403.2656,603.8125 Q403.2656,600.6875 404.5781,599.0313 Q405.9063,597.375 408.4063,597.375 Q409.1094,597.375 409.75,597.5313 Q410.4063,597.6875 410.9688,597.9844 L410.9688,600.7031 Q410.3438,600.125 409.75,599.8594 Q409.1563,599.5781 408.5313,599.5781 Q407.1875,599.5781 406.5,600.6563 Q405.8125,601.7188 405.8125,603.8125 Q405.8125,605.9063 406.5,606.9844 Q407.1875,608.0469 408.5313,608.0469 Q409.1563,608.0469 409.75,607.7813 Q410.3438,607.5 410.9688,606.9219 L410.9688,609.6406 Z " fill="#000000"/><text fill="#000000" font-family="sans-serif" font-size="14" lengthAdjust="spacing" textLength="29" x="422" y="608.8467">Utils</text></g><!--class PaymentGatewayRequester--><g id="elem_PaymentGatewayRequester"><rect codeLine="75" fill="#F1F1F1" height="32" id="PaymentGatewayRequester" rx="2.5" ry="2.5" style="stroke:#181818;stroke-width:0.5;" width="224" x="311.5" y="737"/><ellipse cx="326.5" cy="753" fill="#ADD1B2" rx="11" ry="11" style="stroke:#181818;stroke-width:1.0;"/><path d="M329.4688,758.6406 Q328.8906,758.9375 328.25,759.0781 Q327.6094,759.2344 326.9063,759.2344 Q324.4063,759.2344 323.0781,757.5938 Q321.7656,755.9375 321.7656,752.8125 Q321.7656,749.6875 323.0781,748.0313 Q324.4063,746.375 326.9063,746.375 Q327.6094,746.375 328.25,746.5313 Q328.9063,746.6875 329.4688,746.9844 L329.4688,749.7031 Q328.8438,749.125 328.25,748.8594 Q327.6563,748.5781 327.0313,748.5781 Q325.6875,748.5781 325,749.6563 Q324.3125,750.7188 324.3125,752.8125 Q324.3125,754.9063 325,755.9844 Q325.6875,757.0469 327.0313,757.0469 Q327.6563,757.0469 328.25,756.7813 Q328.8438,756.5 329.4688,755.9219 L329.4688,758.6406 Z " fill="#000000"/><text fill="#000000" font-family="sans-serif" font-size="14" lengthAdjust="spacing" textLength="192" x="340.5" y="757.8467">PaymentGatewayRequester</text></g><!--class PaymentGatewayRequesterTest--><g id="elem_PaymentGatewayRequesterTest"><rect codeLine="84" fill="#F1F1F1" height="32" id="PaymentGatewayRequesterTest" rx="2.5" ry="2.5" style="stroke:#181818;stroke-width:0.5;" width="255" x="296" y="971"/><ellipse cx="311" cy="987" fill="#ADD1B2" rx="11" ry="11" style="stroke:#181818;stroke-width:1.0;"/><path d="M313.9688,992.6406 Q313.3906,992.9375 312.75,993.0781 Q312.1094,993.2344 311.4063,993.2344 Q308.9063,993.2344 307.5781,991.5938 Q306.2656,989.9375 306.2656,986.8125 Q306.2656,983.6875 307.5781,982.0313 Q308.9063,980.375 311.4063,980.375 Q312.1094,980.375 312.75,980.5313 Q313.4063,980.6875 313.9688,980.9844 L313.9688,983.7031 Q313.3438,983.125 312.75,982.8594 Q312.1563,982.5781 311.5313,982.5781 Q310.1875,982.5781 309.5,983.6563 Q308.8125,984.7188 308.8125,986.8125 Q308.8125,988.9063 309.5,989.9844 Q310.1875,991.0469 311.5313,991.0469 Q312.1563,991.0469 312.75,990.7813 Q313.3438,990.5 313.9688,989.9219 L313.9688,992.6406 Z " fill="#000000"/><text fill="#000000" font-family="sans-serif" font-size="14" lengthAdjust="spacing" textLength="223" x="325" y="991.8467">PaymentGatewayRequesterTest</text></g><!--class UtilsTest--><g id="elem_UtilsTest"><rect codeLine="87" fill="#F1F1F1" height="32" id="UtilsTest" rx="2.5" ry="2.5" style="stroke:#181818;stroke-width:0.5;" width="92" x="377.5" y="1078"/><ellipse cx="392.5" cy="1094" fill="#ADD1B2" rx="11" ry="11" style="stroke:#181818;stroke-width:1.0;"/><path d="M395.4688,1099.6406 Q394.8906,1099.9375 394.25,1100.0781 Q393.6094,1100.2344 392.9063,1100.2344 Q390.4063,1100.2344 389.0781,1098.5938 Q387.7656,1096.9375 387.7656,1093.8125 Q387.7656,1090.6875 389.0781,1089.0313 Q390.4063,1087.375 392.9063,1087.375 Q393.6094,1087.375 394.25,1087.5313 Q394.9063,1087.6875 395.4688,1087.9844 L395.4688,1090.7031 Q394.8438,1090.125 394.25,1089.8594 Q393.6563,1089.5781 393.0313,1089.5781 Q391.6875,1089.5781 391,1090.6563 Q390.3125,1091.7188 390.3125,1093.8125 Q390.3125,1095.9063 391,1096.9844 Q391.6875,1098.0469 393.0313,1098.0469 Q393.6563,1098.0469 394.25,1097.7813 Q394.8438,1097.5 395.4688,1096.9219 L395.4688,1099.6406 Z " fill="#000000"/><text fill="#000000" font-family="sans-serif" font-size="14" lengthAdjust="spacing" textLength="60" x="406.5" y="1098.8467">UtilsTest</text></g><!--class TestCase--><g id="elem_TestCase"><rect fill="#F1F1F1" height="32" id="TestCase" rx="2.5" ry="2.5" style="stroke:#181818;stroke-width:0.5;" width="98" x="46" y="1025"/><ellipse cx="61" cy="1041" fill="#ADD1B2" rx="11" ry="11" style="stroke:#181818;stroke-width:1.0;"/><path d="M63.9688,1046.6406 Q63.3906,1046.9375 62.75,1047.0781 Q62.1094,1047.2344 61.4063,1047.2344 Q58.9063,1047.2344 57.5781,1045.5938 Q56.2656,1043.9375 56.2656,1040.8125 Q56.2656,1037.6875 57.5781,1036.0313 Q58.9063,1034.375 61.4063,1034.375 Q62.1094,1034.375 62.75,1034.5313 Q63.4063,1034.6875 63.9688,1034.9844 L63.9688,1037.7031 Q63.3438,1037.125 62.75,1036.8594 Q62.1563,1036.5781 61.5313,1036.5781 Q60.1875,1036.5781 59.5,1037.6563 Q58.8125,1038.7188 58.8125,1040.8125 Q58.8125,1042.9063 59.5,1043.9844 Q60.1875,1045.0469 61.5313,1045.0469 Q62.1563,1045.0469 62.75,1044.7813 Q63.3438,1044.5 63.9688,1043.9219 L63.9688,1046.6406 Z " fill="#000000"/><text fill="#000000" font-family="sans-serif" font-size="14" lengthAdjust="spacing" textLength="66" x="75" y="1045.8467">TestCase</text></g><!--class Exception--><g id="elem_Exception"><rect fill="#F1F1F1" height="32" id="Exception" rx="2.5" ry="2.5" style="stroke:#181818;stroke-width:0.5;" width="100" x="45" y="271"/><ellipse cx="60" cy="287" fill="#ADD1B2" rx="11" ry="11" style="stroke:#181818;stroke-width:1.0;"/><path d="M62.9688,292.6406 Q62.3906,292.9375 61.75,293.0781 Q61.1094,293.2344 60.4063,293.2344 Q57.9063,293.2344 56.5781,291.5938 Q55.2656,289.9375 55.2656,286.8125 Q55.2656,283.6875 56.5781,282.0313 Q57.9063,280.375 60.4063,280.375 Q61.1094,280.375 61.75,280.5313 Q62.4063,280.6875 62.9688,280.9844 L62.9688,283.7031 Q62.3438,283.125 61.75,282.8594 Q61.1563,282.5781 60.5313,282.5781 Q59.1875,282.5781 58.5,283.6563 Q57.8125,284.7188 57.8125,286.8125 Q57.8125,288.9063 58.5,289.9844 Q59.1875,291.0469 60.5313,291.0469 Q61.1563,291.0469 61.75,290.7813 Q62.3438,290.5 62.9688,289.9219 L62.9688,292.6406 Z " fill="#000000"/><text fill="#000000" font-family="sans-serif" font-size="14" lengthAdjust="spacing" textLength="68" x="74" y="291.8467">Exception</text></g><!--reverse link Exception to CurlRequestException--><g id="link_Exception_CurlRequestException"><path d="M79,250.84 C79,250.84 79,153 79,153 C79,153 228.25,153 330.27,153 " fill="none" id="Exception-backto-CurlRequestException" style="stroke:#516F42;stroke-width:1.0;"/><polygon fill="none" points="86,250.84,79,270.84,72,250.84,86,250.84" style="stroke:#516F42;stroke-width:1.0;"/></g><!--reverse link Exception to VariableLengthException--><g id="link_Exception_VariableLengthException"><path d="M112,250.78 C112,250.78 112,220 112,220 C112,220 231.41,220 322.36,220 " fill="none" id="Exception-backto-VariableLengthException" style="stroke:#516F42;stroke-width:1.0;"/><polygon fill="none" points="119,250.78,112,270.78,105,250.78,119,250.78" style="stroke:#516F42;stroke-width:1.0;"/></g><!--reverse link Exception to VariableNotContainsException--><g id="link_Exception_VariableNotContainsException"><path d="M165.25,287 C165.25,287 303.68,287 303.68,287 " fill="none" id="Exception-backto-VariableNotContainsException" style="stroke:#516F42;stroke-width:1.0;"/><polygon fill="none" points="165.25,294,145.25,287,165.25,280,165.25,294" style="stroke:#516F42;stroke-width:1.0;"/></g><!--reverse link Exception to VariableNotGuidException--><g id="link_Exception_VariableNotGuidException"><path d="M112,323.22 C112,323.22 112,354 112,354 C112,354 228.04,354 318.47,354 " fill="none" id="Exception-backto-VariableNotGuidException" style="stroke:#516F42;stroke-width:1.0;"/><polygon fill="none" points="105,323.22,112,303.22,119,323.22,105,323.22" style="stroke:#516F42;stroke-width:1.0;"/></g><!--reverse link Exception to VariableNotUrlException--><g id="link_Exception_VariableNotUrlException"><path d="M79,323.16 C79,323.16 79,421 79,421 C79,421 223.42,421 325.24,421 " fill="none" id="Exception-backto-VariableNotUrlException" style="stroke:#516F42;stroke-width:1.0;"/><polygon fill="none" points="72,323.16,79,303.16,86,323.16,72,323.16" style="stroke:#516F42;stroke-width:1.0;"/></g><!--reverse link AbstractToArray to PaymentNotifyData--><g id="link_AbstractToArray_PaymentNotifyData"><path d="M514.2,533 C514.2,533 711,533 711,533 C711,533 711,308.49 711,245.34 " fill="none" id="AbstractToArray-backto-PaymentNotifyData" style="stroke:#516F42;stroke-width:1.0;"/><polygon fill="none" points="514.2,540,494.2,533,514.2,526,514.2,540" style="stroke:#516F42;stroke-width:1.0;"/></g><!--reverse link AbstractToArray to Basket--><g id="link_AbstractToArray_Basket"><path d="M447,500.78 C447,500.78 447,470 447,470 C447,470 654.23,470 743.68,470 " fill="none" id="AbstractToArray-backto-Basket" style="stroke:#516F42;stroke-width:1.0;"/><polygon fill="none" points="454,500.78,447,520.78,440,500.78,454,500.78" style="stroke:#516F42;stroke-width:1.0;"/></g><!--reverse link AbstractToArray to BasketHeader--><g id="link_AbstractToArray_BasketHeader"><path d="M514.29,537 C514.29,537 718.83,537 718.83,537 " fill="none" id="AbstractToArray-backto-BasketHeader" style="stroke:#516F42;stroke-width:1.0;"/><polygon fill="none" points="514.29,544,494.29,537,514.29,530,514.29,544" style="stroke:#516F42;stroke-width:1.0;"/></g><!--reverse link AbstractToArray to BasketItem--><g id="link_AbstractToArray_BasketItem"><path d="M486,573.22 C486,573.22 486,604 486,604 C486,604 642.89,604 728.99,604 " fill="none" id="AbstractToArray-backto-BasketItem" style="stroke:#516F42;stroke-width:1.0;"/><polygon fill="none" points="479,573.22,486,553.22,493,573.22,479,573.22" style="stroke:#516F42;stroke-width:1.0;"/></g><!--reverse link AbstractToArray to CardHolder--><g id="link_AbstractToArray_CardHolder"><path d="M470,573.16 C470,573.16 470,671 470,671 C470,671 639.34,671 729.31,671 " fill="none" id="AbstractToArray-backto-CardHolder" style="stroke:#516F42;stroke-width:1.0;"/><polygon fill="none" points="463,573.16,470,553.16,477,573.16,463,573.16" style="stroke:#516F42;stroke-width:1.0;"/></g><!--reverse link AbstractToArray to CardHolderPhoneNumber--><g id="link_AbstractToArray_CardHolderPhoneNumber"><path d="M462,573.08 C462,573.08 462,729.5 462,729.5 C462,729.5 585.43,729.5 679.46,729.5 " fill="none" id="AbstractToArray-backto-CardHolderPhoneNumber" style="stroke:#516F42;stroke-width:1.0;"/><polygon fill="none" points="455,573.08,462,553.08,469,573.08,455,573.08" style="stroke:#516F42;stroke-width:1.0;"/></g><!--reverse link AbstractToArray to CustomerBasket--><g id="link_AbstractToArray_CustomerBasket"><path d="M514.29,549 C514.29,549 540,549 540,549 C540,549 540,805 540,805 C540,805 638.01,805 709.8,805 " fill="none" id="AbstractToArray-backto-CustomerBasket" style="stroke:#516F42;stroke-width:1.0;"/><polygon fill="none" points="514.29,556,494.29,549,514.29,542,514.29,556" style="stroke:#516F42;stroke-width:1.0;"/></g><!--reverse link AbstractToArray to DanubePay--><g id="link_AbstractToArray_DanubePay"><path d="M514.05,529 C514.05,529 532,529 532,529 C532,529 532,345 532,345 C532,345 654.17,345 728.39,345 " fill="none" id="AbstractToArray-backto-DanubePay" style="stroke:#516F42;stroke-width:1.0;"/><polygon fill="none" points="514.05,536,494.05,529,514.05,522,514.05,536" style="stroke:#516F42;stroke-width:1.0;"/></g><!--reverse link AbstractToArray to Payment--><g id="link_AbstractToArray_Payment"><path d="M514.27,525 C514.27,525 525,525 525,525 C525,525 525,412 525,412 C525,412 663.57,412 737.99,412 " fill="none" id="AbstractToArray-backto-Payment" style="stroke:#516F42;stroke-width:1.0;"/><polygon fill="none" points="514.27,532,494.27,525,514.27,518,514.27,532" style="stroke:#516F42;stroke-width:1.0;"/></g><!--reverse link AbstractToArray to PaymentInfoRequest--><g id="link_AbstractToArray_PaymentInfoRequest"><path d="M478,573.23 C478,573.23 478,638 478,638 C478,638 791.21,638 948.73,638 " fill="none" id="AbstractToArray-backto-PaymentInfoRequest" style="stroke:#516F42;stroke-width:1.0;"/><polygon fill="none" points="471,573.23,478,553.23,485,573.23,471,573.23" style="stroke:#516F42;stroke-width:1.0;"/></g><!--reverse link PaymentGatewayRequest to PaymentInfoRequest--><g id="link_PaymentGatewayRequest_PaymentInfoRequest"><path d="M909.1,866.67 C909.1,866.67 1037,866.67 1037,866.67 C1037,866.67 1037,706.13 1037,654.08 " fill="none" id="PaymentGatewayRequest-backto-PaymentInfoRequest" style="stroke:#516F42;stroke-width:1.0;stroke-dasharray:7.0,7.0;"/><polygon fill="none" points="909.1,873.67,889.1,866.67,909.1,859.67,909.1,873.67" style="stroke:#516F42;stroke-width:1.0;"/></g><!--reverse link AbstractToArray to PaymentRequest--><g id="link_AbstractToArray_PaymentRequest"><path d="M400,500.73 C400,500.73 400,446 400,446 C400,446 792.69,446 961.43,446 " fill="none" id="AbstractToArray-backto-PaymentRequest" style="stroke:#516F42;stroke-width:1.0;"/><polygon fill="none" points="407,500.73,400,520.73,393,500.73,407,500.73" style="stroke:#516F42;stroke-width:1.0;"/></g><!--reverse link PaymentGatewayRequest to PaymentRequest--><g id="link_PaymentGatewayRequest_PaymentRequest"><path d="M909.04,877.33 C909.04,877.33 919,877.33 919,877.33 C919,877.33 919,462 919,462 C919,462 938.29,462 961.27,462 " fill="none" id="PaymentGatewayRequest-backto-PaymentRequest" style="stroke:#516F42;stroke-width:1.0;stroke-dasharray:7.0,7.0;"/><polygon fill="none" points="909.04,884.33,889.04,877.33,909.04,870.33,909.04,884.33" style="stroke:#516F42;stroke-width:1.0;"/></g><!--reverse link AbstractToArray to PaymentInfoResponse--><g id="link_AbstractToArray_PaymentInfoResponse"><path d="M514.3,541 C514.3,541 637,541 637,541 C637,541 637,1050.25 637,1050.25 C637,1050.25 661.03,1050.25 689.66,1050.25 " fill="none" id="AbstractToArray-backto-PaymentInfoResponse" style="stroke:#516F42;stroke-width:1.0;"/><polygon fill="none" points="514.3,548,494.3,541,514.3,534,514.3,548" style="stroke:#516F42;stroke-width:1.0;"/></g><!--reverse link AbstractToArray to PaymentResponse--><g id="link_AbstractToArray_PaymentResponse"><path d="M514.33,545 C514.33,545 594,545 594,545 C594,545 594,1103.5 594,1103.5 C594,1103.5 650.82,1103.5 702.32,1103.5 " fill="none" id="AbstractToArray-backto-PaymentResponse" style="stroke:#516F42;stroke-width:1.0;"/><polygon fill="none" points="514.33,552,494.33,545,514.33,538,514.33,552" style="stroke:#516F42;stroke-width:1.0;"/></g><!--reverse link TestCase to PaymentGatewayRequesterTest--><g id="link_TestCase_PaymentGatewayRequesterTest"><path d="M164.26,1036.75 C164.26,1036.75 337,1036.75 337,1036.75 C337,1036.75 337,1017.56 337,1003.02 " fill="none" id="TestCase-backto-PaymentGatewayRequesterTest" style="stroke:#516F42;stroke-width:1.0;"/><polygon fill="none" points="164.26,1043.75,144.26,1036.75,164.26,1029.75,164.26,1043.75" style="stroke:#516F42;stroke-width:1.0;"/></g><!--reverse link TestCase to UtilsTest--><g id="link_TestCase_UtilsTest"><path d="M164.25,1043.5 C164.25,1043.5 424,1043.5 424,1043.5 C424,1043.5 424,1062.98 424,1077.74 " fill="none" id="TestCase-backto-UtilsTest" style="stroke:#516F42;stroke-width:1.0;"/><polygon fill="none" points="164.25,1050.5,144.25,1043.5,164.25,1036.5,164.25,1050.5" style="stroke:#516F42;stroke-width:1.0;"/></g><!--SRC=[rPVDRjim3CVlUWe1Uu9ztbDdQmeCXR4cE-d2n7GiH18rYLvg37ltoOdJj4EAEMkoU3xO5adz-PDC2RAKCgwqyn30ob48jCx8K92lth_-KBvx8-HZFonOVzVSN54eCFG9XCLg6QXsHHTSRgx3mMCDbbpHMtmNtoT7hA2WjNPBMOA9ACJphht7Q8VSU9GKk29HwG8bMi-Dj6Zd6A8mMB9aaa4lAvQ53fZOo8c8B1rOZ1uMU8Uj72SqfOGG2mCnfjVHspigkNtcqEILpun6bzeVxnVeMnMbiZgOB_YjniWFLedtZAve5VQs7-BdKS9V8MYO6_oCRidLURHlYJDo3Dh5ioMuhdLnDl5PC2VGdg3n69HALfiCry2uXcRajL8fXowR1zUsEGQ6HzcUavsnDiawZnpIUfXIMhhGl9YeApQbhY2kKWqFX6E2aBQ4eT3SCDhBisGGYWcPGSpBdYMloE5jtUwE0y2g8vF5C9HY7eEhvvWYBe_I-GO3SkDAwcn_pQIjDzYAdOYfy-smJZta_s6usZ66CfrX1ZgZqPEBk3ieRLidb7rId9twvLRCRrJ_XkW0oS6FcVRxZHvqIUIVX5_0jEtQtcE_3jC468yPo_Jfmimd-Spf9FGf_HRWci9ggvb1ttBh23RCtUFO7By0]--></g></svg>