<?xml version="1.0" encoding="us-ascii" standalone="no"?><svg xmlns="http://www.w3.org/2000/svg" xmlns:xlink="http://www.w3.org/1999/xlink" contentStyleType="text/css" height="1690px" preserveAspectRatio="none" style="width:1253px;height:1690px;background:#FFFFFF;" version="1.1" viewBox="0 0 1253 1690" width="1253px" zoomAndPan="magnify"><defs/><g><!--cluster A3Soft--><g id="cluster_A3Soft"><path d="M210.5,6 L264.5,6 A3.75,3.75 0 0 1 267,8.5 L274,28.2969 L1244,28.2969 A2.5,2.5 0 0 1 1246.5,30.7969 L1246.5,1680.5 A2.5,2.5 0 0 1 1244,1683 L210.5,1683 A2.5,2.5 0 0 1 208,1680.5 L208,8.5 A2.5,2.5 0 0 1 210.5,6 " fill="none" style="stroke:#000000;stroke-width:1.5;"/><line style="stroke:#000000;stroke-width:1.5;" x1="208" x2="274" y1="28.2969" y2="28.2969"/><text fill="#000000" font-family="sans-serif" font-size="14" font-weight="bold" lengthAdjust="spacing" textLength="53" x="212" y="20.9951">A3Soft</text></g><!--cluster A3PayPhpClient--><g id="cluster_A3PayPhpClient"><path d="M234.5,49 L359.5,49 A3.75,3.75 0 0 1 362,51.5 L369,71.2969 L1220,71.2969 A2.5,2.5 0 0 1 1222.5,73.7969 L1222.5,1656.5 A2.5,2.5 0 0 1 1220,1659 L234.5,1659 A2.5,2.5 0 0 1 232,1656.5 L232,51.5 A2.5,2.5 0 0 1 234.5,49 " fill="none" style="stroke:#000000;stroke-width:1.5;"/><line style="stroke:#000000;stroke-width:1.5;" x1="232" x2="369" y1="71.2969" y2="71.2969"/><text fill="#000000" font-family="sans-serif" font-size="14" font-weight="bold" lengthAdjust="spacing" textLength="124" x="236" y="63.9951">A3PayPhpClient</text></g><!--cluster Exception--><g id="cluster_Exception"><path d="M290.5,92 L368.5,92 A3.75,3.75 0 0 1 371,94.5 L378,114.2969 L912,114.2969 A2.5,2.5 0 0 1 914.5,116.7969 L914.5,507.5 A2.5,2.5 0 0 1 912,510 L290.5,510 A2.5,2.5 0 0 1 288,507.5 L288,94.5 A2.5,2.5 0 0 1 290.5,92 " fill="none" style="stroke:#000000;stroke-width:1.5;"/><line style="stroke:#000000;stroke-width:1.5;" x1="288" x2="378" y1="114.2969" y2="114.2969"/><text fill="#000000" font-family="sans-serif" font-size="14" font-weight="bold" lengthAdjust="spacing" textLength="77" x="292" y="106.9951">Exception</text></g><!--cluster Helper--><g id="cluster_Helper"><path d="M617.5,534 L670.5,534 A3.75,3.75 0 0 1 673,536.5 L680,556.2969 L1196,556.2969 A2.5,2.5 0 0 1 1198.5,558.7969 L1198.5,1632.5 A2.5,2.5 0 0 1 1196,1635 L617.5,1635 A2.5,2.5 0 0 1 615,1632.5 L615,536.5 A2.5,2.5 0 0 1 617.5,534 " fill="none" style="stroke:#000000;stroke-width:1.5;"/><line style="stroke:#000000;stroke-width:1.5;" x1="615" x2="680" y1="556.2969" y2="556.2969"/><text fill="#000000" font-family="sans-serif" font-size="14" font-weight="bold" lengthAdjust="spacing" textLength="52" x="619" y="548.9951">Helper</text></g><!--cluster PaymentGatewayApi--><g id="cluster_PaymentGatewayApi"><path d="M641.5,577 L804.5,577 A3.75,3.75 0 0 1 807,579.5 L814,599.2969 L1172,599.2969 A2.5,2.5 0 0 1 1174.5,601.7969 L1174.5,1608.5 A2.5,2.5 0 0 1 1172,1611 L641.5,1611 A2.5,2.5 0 0 1 639,1608.5 L639,579.5 A2.5,2.5 0 0 1 641.5,577 " fill="none" style="stroke:#000000;stroke-width:1.5;"/><line style="stroke:#000000;stroke-width:1.5;" x1="639" x2="814" y1="599.2969" y2="599.2969"/><text fill="#000000" font-family="sans-serif" font-size="14" font-weight="bold" lengthAdjust="spacing" textLength="162" x="643" y="591.9951">PaymentGatewayApi</text></g><!--cluster Notify--><g id="cluster_Notify"><path d="M689.5,620 L736.5,620 A3.75,3.75 0 0 1 739,622.5 L746,642.2969 L878.5,642.2969 A2.5,2.5 0 0 1 881,644.7969 L881,700.5 A2.5,2.5 0 0 1 878.5,703 L689.5,703 A2.5,2.5 0 0 1 687,700.5 L687,622.5 A2.5,2.5 0 0 1 689.5,620 " fill="none" style="stroke:#000000;stroke-width:1.5;"/><line style="stroke:#000000;stroke-width:1.5;" x1="687" x2="746" y1="642.2969" y2="642.2969"/><text fill="#000000" font-family="sans-serif" font-size="14" font-weight="bold" lengthAdjust="spacing" textLength="46" x="691" y="634.9951">Notify</text></g><!--cluster Request--><g id="cluster_Request"><path d="M665.5,727 L731.5,727 A3.75,3.75 0 0 1 734,729.5 L741,749.2969 L1148,749.2969 A2.5,2.5 0 0 1 1150.5,751.7969 L1150.5,1343.5 A2.5,2.5 0 0 1 1148,1346 L665.5,1346 A2.5,2.5 0 0 1 663,1343.5 L663,729.5 A2.5,2.5 0 0 1 665.5,727 " fill="none" style="stroke:#000000;stroke-width:1.5;"/><line style="stroke:#000000;stroke-width:1.5;" x1="663" x2="741" y1="749.2969" y2="749.2969"/><text fill="#000000" font-family="sans-serif" font-size="14" font-weight="bold" lengthAdjust="spacing" textLength="65" x="667" y="741.9951">Request</text></g><!--cluster Response--><g id="cluster_Response"><path d="M676.5,1370 L755.5,1370 A3.75,3.75 0 0 1 758,1372.5 L765,1392.2969 L891.5,1392.2969 A2.5,2.5 0 0 1 894,1394.7969 L894,1584.5 A2.5,2.5 0 0 1 891.5,1587 L676.5,1587 A2.5,2.5 0 0 1 674,1584.5 L674,1372.5 A2.5,2.5 0 0 1 676.5,1370 " fill="none" style="stroke:#000000;stroke-width:1.5;"/><line style="stroke:#000000;stroke-width:1.5;" x1="674" x2="765" y1="1392.2969" y2="1392.2969"/><text fill="#000000" font-family="sans-serif" font-size="14" font-weight="bold" lengthAdjust="spacing" textLength="78" x="678" y="1384.9951">Response</text></g><!--cluster Util--><g id="cluster_Util"><path d="M339.5,895 L365.5,895 A3.75,3.75 0 0 1 368,897.5 L375,917.2969 L507.5,917.2969 A2.5,2.5 0 0 1 510,919.7969 L510,1042.5 A2.5,2.5 0 0 1 507.5,1045 L339.5,1045 A2.5,2.5 0 0 1 337,1042.5 L337,897.5 A2.5,2.5 0 0 1 339.5,895 " fill="none" style="stroke:#000000;stroke-width:1.5;"/><line style="stroke:#000000;stroke-width:1.5;" x1="337" x2="375" y1="917.2969" y2="917.2969"/><text fill="#000000" font-family="sans-serif" font-size="14" font-weight="bold" lengthAdjust="spacing" textLength="25" x="341" y="909.9951">Util</text></g><!--cluster PaymentGatewayApi--><g id="cluster_PaymentGatewayApi"><path d="M298,1111 L461,1111 A3.75,3.75 0 0 1 463.5,1113.5 L470.5,1133.2969 L549,1133.2969 A2.5,2.5 0 0 1 551.5,1135.7969 L551.5,1191.5 A2.5,2.5 0 0 1 549,1194 L298,1194 A2.5,2.5 0 0 1 295.5,1191.5 L295.5,1113.5 A2.5,2.5 0 0 1 298,1111 " fill="none" style="stroke:#000000;stroke-width:1.5;"/><line style="stroke:#000000;stroke-width:1.5;" x1="295.5" x2="470.5" y1="1133.2969" y2="1133.2969"/><text fill="#000000" font-family="sans-serif" font-size="14" font-weight="bold" lengthAdjust="spacing" textLength="162" x="299.5" y="1125.9951">PaymentGatewayApi</text></g><!--cluster Tests--><g id="cluster_Tests"><path d="M258.5,1302 L303.5,1302 A3.75,3.75 0 0 1 306,1304.5 L313,1324.2969 L588.5,1324.2969 A2.5,2.5 0 0 1 591,1326.7969 L591,1556.5 A2.5,2.5 0 0 1 588.5,1559 L258.5,1559 A2.5,2.5 0 0 1 256,1556.5 L256,1304.5 A2.5,2.5 0 0 1 258.5,1302 " fill="none" style="stroke:#000000;stroke-width:1.5;"/><line style="stroke:#000000;stroke-width:1.5;" x1="256" x2="313" y1="1324.2969" y2="1324.2969"/><text fill="#000000" font-family="sans-serif" font-size="14" font-weight="bold" lengthAdjust="spacing" textLength="44" x="260" y="1316.9951">Tests</text></g><!--cluster PaymentGatewayApi--><g id="cluster_PaymentGatewayApi"><path d="M282.5,1345 L445.5,1345 A3.75,3.75 0 0 1 448,1347.5 L455,1367.2969 L564.5,1367.2969 A2.5,2.5 0 0 1 567,1369.7969 L567,1425.5 A2.5,2.5 0 0 1 564.5,1428 L282.5,1428 A2.5,2.5 0 0 1 280,1425.5 L280,1347.5 A2.5,2.5 0 0 1 282.5,1345 " fill="none" style="stroke:#000000;stroke-width:1.5;"/><line style="stroke:#000000;stroke-width:1.5;" x1="280" x2="455" y1="1367.2969" y2="1367.2969"/><text fill="#000000" font-family="sans-serif" font-size="14" font-weight="bold" lengthAdjust="spacing" textLength="162" x="284" y="1359.9951">PaymentGatewayApi</text></g><!--cluster Utils--><g id="cluster_Utils"><path d="M364,1452 L399,1452 A3.75,3.75 0 0 1 401.5,1454.5 L408.5,1474.2969 L483,1474.2969 A2.5,2.5 0 0 1 485.5,1476.7969 L485.5,1532.5 A2.5,2.5 0 0 1 483,1535 L364,1535 A2.5,2.5 0 0 1 361.5,1532.5 L361.5,1454.5 A2.5,2.5 0 0 1 364,1452 " fill="none" style="stroke:#000000;stroke-width:1.5;"/><line style="stroke:#000000;stroke-width:1.5;" x1="361.5" x2="408.5" y1="1474.2969" y2="1474.2969"/><text fill="#000000" font-family="sans-serif" font-size="14" font-weight="bold" lengthAdjust="spacing" textLength="34" x="365.5" y="1466.9951">Utils</text></g><!--cluster PHPUnit--><g id="cluster_PHPUnit"><path d="M8.5,1356 L71.5,1356 A3.75,3.75 0 0 1 74,1358.5 L81,1378.2969 L181.5,1378.2969 A2.5,2.5 0 0 1 184,1380.7969 L184,1503.5 A2.5,2.5 0 0 1 181.5,1506 L8.5,1506 A2.5,2.5 0 0 1 6,1503.5 L6,1358.5 A2.5,2.5 0 0 1 8.5,1356 " fill="none" style="stroke:#000000;stroke-width:1.5;"/><line style="stroke:#000000;stroke-width:1.5;" x1="6" x2="81" y1="1378.2969" y2="1378.2969"/><text fill="#000000" font-family="sans-serif" font-size="14" font-weight="bold" lengthAdjust="spacing" textLength="62" x="10" y="1370.9951">PHPUnit</text></g><!--cluster Framework--><g id="cluster_Framework"><path d="M32.5,1399 L122.5,1399 A3.75,3.75 0 0 1 125,1401.5 L132,1421.2969 L157.5,1421.2969 A2.5,2.5 0 0 1 160,1423.7969 L160,1479.5 A2.5,2.5 0 0 1 157.5,1482 L32.5,1482 A2.5,2.5 0 0 1 30,1479.5 L30,1401.5 A2.5,2.5 0 0 1 32.5,1399 " fill="none" style="stroke:#000000;stroke-width:1.5;"/><line style="stroke:#000000;stroke-width:1.5;" x1="30" x2="132" y1="1421.2969" y2="1421.2969"/><text fill="#000000" font-family="sans-serif" font-size="14" font-weight="bold" lengthAdjust="spacing" textLength="89" x="34" y="1413.9951">Framework</text></g><!--class CurlRequestException--><g id="elem_CurlRequestException"><rect codeLine="15" fill="#F1F1F1" height="32" id="CurlRequestException" rx="2.5" ry="2.5" style="stroke:#181818;stroke-width:0.5;" width="186" x="330.5" y="395"/><ellipse cx="345.5" cy="411" fill="#ADD1B2" rx="11" ry="11" style="stroke:#181818;stroke-width:1.0;"/><path d="M348.4688,416.6406 Q347.8906,416.9375 347.25,417.0781 Q346.6094,417.2344 345.9063,417.2344 Q343.4063,417.2344 342.0781,415.5938 Q340.7656,413.9375 340.7656,410.8125 Q340.7656,407.6875 342.0781,406.0313 Q343.4063,404.375 345.9063,404.375 Q346.6094,404.375 347.25,404.5313 Q347.9063,404.6875 348.4688,404.9844 L348.4688,407.7031 Q347.8438,407.125 347.25,406.8594 Q346.6563,406.5781 346.0313,406.5781 Q344.6875,406.5781 344,407.6563 Q343.3125,408.7188 343.3125,410.8125 Q343.3125,412.9063 344,413.9844 Q344.6875,415.0469 346.0313,415.0469 Q346.6563,415.0469 347.25,414.7813 Q347.8438,414.5 348.4688,413.9219 L348.4688,416.6406 Z " fill="#000000"/><text fill="#000000" font-family="sans-serif" font-size="14" lengthAdjust="spacing" textLength="154" x="359.5" y="415.8467">CurlRequestException</text></g><!--class VariableLengthException--><g id="elem_VariableLengthException"><rect codeLine="18" fill="#F1F1F1" height="32" id="VariableLengthException" rx="2.5" ry="2.5" style="stroke:#181818;stroke-width:0.5;" width="202" x="322.5" y="462"/><ellipse cx="337.5" cy="478" fill="#ADD1B2" rx="11" ry="11" style="stroke:#181818;stroke-width:1.0;"/><path d="M340.4688,483.6406 Q339.8906,483.9375 339.25,484.0781 Q338.6094,484.2344 337.9063,484.2344 Q335.4063,484.2344 334.0781,482.5938 Q332.7656,480.9375 332.7656,477.8125 Q332.7656,474.6875 334.0781,473.0313 Q335.4063,471.375 337.9063,471.375 Q338.6094,471.375 339.25,471.5313 Q339.9063,471.6875 340.4688,471.9844 L340.4688,474.7031 Q339.8438,474.125 339.25,473.8594 Q338.6563,473.5781 338.0313,473.5781 Q336.6875,473.5781 336,474.6563 Q335.3125,475.7188 335.3125,477.8125 Q335.3125,479.9063 336,480.9844 Q336.6875,482.0469 338.0313,482.0469 Q338.6563,482.0469 339.25,481.7813 Q339.8438,481.5 340.4688,480.9219 L340.4688,483.6406 Z " fill="#000000"/><text fill="#000000" font-family="sans-serif" font-size="14" lengthAdjust="spacing" textLength="170" x="351.5" y="482.8467">VariableLengthException</text></g><!--class VariableMaxLengthException--><g id="elem_VariableMaxLengthException"><rect codeLine="21" fill="#F1F1F1" height="32" id="VariableMaxLengthException" rx="2.5" ry="2.5" style="stroke:#181818;stroke-width:0.5;" width="229" x="669.5" y="462"/><ellipse cx="684.5" cy="478" fill="#ADD1B2" rx="11" ry="11" style="stroke:#181818;stroke-width:1.0;"/><path d="M687.4688,483.6406 Q686.8906,483.9375 686.25,484.0781 Q685.6094,484.2344 684.9063,484.2344 Q682.4063,484.2344 681.0781,482.5938 Q679.7656,480.9375 679.7656,477.8125 Q679.7656,474.6875 681.0781,473.0313 Q682.4063,471.375 684.9063,471.375 Q685.6094,471.375 686.25,471.5313 Q686.9063,471.6875 687.4688,471.9844 L687.4688,474.7031 Q686.8438,474.125 686.25,473.8594 Q685.6563,473.5781 685.0313,473.5781 Q683.6875,473.5781 683,474.6563 Q682.3125,475.7188 682.3125,477.8125 Q682.3125,479.9063 683,480.9844 Q683.6875,482.0469 685.0313,482.0469 Q685.6563,482.0469 686.25,481.7813 Q686.8438,481.5 687.4688,480.9219 L687.4688,483.6406 Z " fill="#000000"/><text fill="#000000" font-family="sans-serif" font-size="14" lengthAdjust="spacing" textLength="197" x="698.5" y="482.8467">VariableMaxLengthException</text></g><!--class VariableMinLengthException--><g id="elem_VariableMinLengthException"><rect codeLine="24" fill="#F1F1F1" height="32" id="VariableMinLengthException" rx="2.5" ry="2.5" style="stroke:#181818;stroke-width:0.5;" width="226" x="671" y="395"/><ellipse cx="686" cy="411" fill="#ADD1B2" rx="11" ry="11" style="stroke:#181818;stroke-width:1.0;"/><path d="M688.9688,416.6406 Q688.3906,416.9375 687.75,417.0781 Q687.1094,417.2344 686.4063,417.2344 Q683.9063,417.2344 682.5781,415.5938 Q681.2656,413.9375 681.2656,410.8125 Q681.2656,407.6875 682.5781,406.0313 Q683.9063,404.375 686.4063,404.375 Q687.1094,404.375 687.75,404.5313 Q688.4063,404.6875 688.9688,404.9844 L688.9688,407.7031 Q688.3438,407.125 687.75,406.8594 Q687.1563,406.5781 686.5313,406.5781 Q685.1875,406.5781 684.5,407.6563 Q683.8125,408.7188 683.8125,410.8125 Q683.8125,412.9063 684.5,413.9844 Q685.1875,415.0469 686.5313,415.0469 Q687.1563,415.0469 687.75,414.7813 Q688.3438,414.5 688.9688,413.9219 L688.9688,416.6406 Z " fill="#000000"/><text fill="#000000" font-family="sans-serif" font-size="14" lengthAdjust="spacing" textLength="194" x="700" y="415.8467">VariableMinLengthException</text></g><!--class VariableNotContainsException--><g id="elem_VariableNotContainsException"><rect codeLine="27" fill="#F1F1F1" height="32" id="VariableNotContainsException" rx="2.5" ry="2.5" style="stroke:#181818;stroke-width:0.5;" width="239" x="304" y="127"/><ellipse cx="319" cy="143" fill="#ADD1B2" rx="11" ry="11" style="stroke:#181818;stroke-width:1.0;"/><path d="M321.9688,148.6406 Q321.3906,148.9375 320.75,149.0781 Q320.1094,149.2344 319.4063,149.2344 Q316.9063,149.2344 315.5781,147.5938 Q314.2656,145.9375 314.2656,142.8125 Q314.2656,139.6875 315.5781,138.0313 Q316.9063,136.375 319.4063,136.375 Q320.1094,136.375 320.75,136.5313 Q321.4063,136.6875 321.9688,136.9844 L321.9688,139.7031 Q321.3438,139.125 320.75,138.8594 Q320.1563,138.5781 319.5313,138.5781 Q318.1875,138.5781 317.5,139.6563 Q316.8125,140.7188 316.8125,142.8125 Q316.8125,144.9063 317.5,145.9844 Q318.1875,147.0469 319.5313,147.0469 Q320.1563,147.0469 320.75,146.7813 Q321.3438,146.5 321.9688,145.9219 L321.9688,148.6406 Z " fill="#000000"/><text fill="#000000" font-family="sans-serif" font-size="14" lengthAdjust="spacing" textLength="207" x="333" y="147.8467">VariableNotContainsException</text></g><!--class VariableNotGuidException--><g id="elem_VariableNotGuidException"><rect codeLine="30" fill="#F1F1F1" height="32" id="VariableNotGuidException" rx="2.5" ry="2.5" style="stroke:#181818;stroke-width:0.5;" width="210" x="318.5" y="194"/><ellipse cx="333.5" cy="210" fill="#ADD1B2" rx="11" ry="11" style="stroke:#181818;stroke-width:1.0;"/><path d="M336.4688,215.6406 Q335.8906,215.9375 335.25,216.0781 Q334.6094,216.2344 333.9063,216.2344 Q331.4063,216.2344 330.0781,214.5938 Q328.7656,212.9375 328.7656,209.8125 Q328.7656,206.6875 330.0781,205.0313 Q331.4063,203.375 333.9063,203.375 Q334.6094,203.375 335.25,203.5313 Q335.9063,203.6875 336.4688,203.9844 L336.4688,206.7031 Q335.8438,206.125 335.25,205.8594 Q334.6563,205.5781 334.0313,205.5781 Q332.6875,205.5781 332,206.6563 Q331.3125,207.7188 331.3125,209.8125 Q331.3125,211.9063 332,212.9844 Q332.6875,214.0469 334.0313,214.0469 Q334.6563,214.0469 335.25,213.7813 Q335.8438,213.5 336.4688,212.9219 L336.4688,215.6406 Z " fill="#000000"/><text fill="#000000" font-family="sans-serif" font-size="14" lengthAdjust="spacing" textLength="178" x="347.5" y="214.8467">VariableNotGuidException</text></g><!--class VariableNotInRangeException--><g id="elem_VariableNotInRangeException"><rect codeLine="33" fill="#F1F1F1" height="32" id="VariableNotInRangeException" rx="2.5" ry="2.5" style="stroke:#181818;stroke-width:0.5;" width="235" x="306" y="261"/><ellipse cx="321" cy="277" fill="#ADD1B2" rx="11" ry="11" style="stroke:#181818;stroke-width:1.0;"/><path d="M323.9688,282.6406 Q323.3906,282.9375 322.75,283.0781 Q322.1094,283.2344 321.4063,283.2344 Q318.9063,283.2344 317.5781,281.5938 Q316.2656,279.9375 316.2656,276.8125 Q316.2656,273.6875 317.5781,272.0313 Q318.9063,270.375 321.4063,270.375 Q322.1094,270.375 322.75,270.5313 Q323.4063,270.6875 323.9688,270.9844 L323.9688,273.7031 Q323.3438,273.125 322.75,272.8594 Q322.1563,272.5781 321.5313,272.5781 Q320.1875,272.5781 319.5,273.6563 Q318.8125,274.7188 318.8125,276.8125 Q318.8125,278.9063 319.5,279.9844 Q320.1875,281.0469 321.5313,281.0469 Q322.1563,281.0469 322.75,280.7813 Q323.3438,280.5 323.9688,279.9219 L323.9688,282.6406 Z " fill="#000000"/><text fill="#000000" font-family="sans-serif" font-size="14" lengthAdjust="spacing" textLength="203" x="335" y="281.8467">VariableNotInRangeException</text></g><!--class VariableNotUrlException--><g id="elem_VariableNotUrlException"><rect codeLine="36" fill="#F1F1F1" height="32" id="VariableNotUrlException" rx="2.5" ry="2.5" style="stroke:#181818;stroke-width:0.5;" width="196" x="325.5" y="328"/><ellipse cx="340.5" cy="344" fill="#ADD1B2" rx="11" ry="11" style="stroke:#181818;stroke-width:1.0;"/><path d="M343.4688,349.6406 Q342.8906,349.9375 342.25,350.0781 Q341.6094,350.2344 340.9063,350.2344 Q338.4063,350.2344 337.0781,348.5938 Q335.7656,346.9375 335.7656,343.8125 Q335.7656,340.6875 337.0781,339.0313 Q338.4063,337.375 340.9063,337.375 Q341.6094,337.375 342.25,337.5313 Q342.9063,337.6875 343.4688,337.9844 L343.4688,340.7031 Q342.8438,340.125 342.25,339.8594 Q341.6563,339.5781 341.0313,339.5781 Q339.6875,339.5781 339,340.6563 Q338.3125,341.7188 338.3125,343.8125 Q338.3125,345.9063 339,346.9844 Q339.6875,348.0469 341.0313,348.0469 Q341.6563,348.0469 342.25,347.7813 Q342.8438,347.5 343.4688,346.9219 L343.4688,349.6406 Z " fill="#000000"/><text fill="#000000" font-family="sans-serif" font-size="14" lengthAdjust="spacing" textLength="164" x="354.5" y="348.8467">VariableNotUrlException</text></g><!--class PaymentNotifyData--><g id="elem_PaymentNotifyData"><rect codeLine="39" fill="#F1F1F1" height="32" id="PaymentNotifyData" rx="2.5" ry="2.5" style="stroke:#181818;stroke-width:0.5;" width="162" x="703" y="655"/><ellipse cx="718" cy="671" fill="#ADD1B2" rx="11" ry="11" style="stroke:#181818;stroke-width:1.0;"/><path d="M720.9688,676.6406 Q720.3906,676.9375 719.75,677.0781 Q719.1094,677.2344 718.4063,677.2344 Q715.9063,677.2344 714.5781,675.5938 Q713.2656,673.9375 713.2656,670.8125 Q713.2656,667.6875 714.5781,666.0313 Q715.9063,664.375 718.4063,664.375 Q719.1094,664.375 719.75,664.5313 Q720.4063,664.6875 720.9688,664.9844 L720.9688,667.7031 Q720.3438,667.125 719.75,666.8594 Q719.1563,666.5781 718.5313,666.5781 Q717.1875,666.5781 716.5,667.6563 Q715.8125,668.7188 715.8125,670.8125 Q715.8125,672.9063 716.5,673.9844 Q717.1875,675.0469 718.5313,675.0469 Q719.1563,675.0469 719.75,674.7813 Q720.3438,674.5 720.9688,673.9219 L720.9688,676.6406 Z " fill="#000000"/><text fill="#000000" font-family="sans-serif" font-size="14" lengthAdjust="spacing" textLength="130" x="732" y="675.8467">PaymentNotifyData</text></g><!--class Basket--><g id="elem_Basket"><rect codeLine="42" fill="#F1F1F1" height="32" id="Basket" rx="2.5" ry="2.5" style="stroke:#181818;stroke-width:0.5;" width="80" x="744" y="1030"/><ellipse cx="759" cy="1046" fill="#ADD1B2" rx="11" ry="11" style="stroke:#181818;stroke-width:1.0;"/><path d="M761.9688,1051.6406 Q761.3906,1051.9375 760.75,1052.0781 Q760.1094,1052.2344 759.4063,1052.2344 Q756.9063,1052.2344 755.5781,1050.5938 Q754.2656,1048.9375 754.2656,1045.8125 Q754.2656,1042.6875 755.5781,1041.0313 Q756.9063,1039.375 759.4063,1039.375 Q760.1094,1039.375 760.75,1039.5313 Q761.4063,1039.6875 761.9688,1039.9844 L761.9688,1042.7031 Q761.3438,1042.125 760.75,1041.8594 Q760.1563,1041.5781 759.5313,1041.5781 Q758.1875,1041.5781 757.5,1042.6563 Q756.8125,1043.7188 756.8125,1045.8125 Q756.8125,1047.9063 757.5,1048.9844 Q758.1875,1050.0469 759.5313,1050.0469 Q760.1563,1050.0469 760.75,1049.7813 Q761.3438,1049.5 761.9688,1048.9219 L761.9688,1051.6406 Z " fill="#000000"/><text fill="#000000" font-family="sans-serif" font-size="14" lengthAdjust="spacing" textLength="48" x="773" y="1050.8467">Basket</text></g><!--class BasketHeader--><g id="elem_BasketHeader"><rect codeLine="45" fill="#F1F1F1" height="32" id="BasketHeader" rx="2.5" ry="2.5" style="stroke:#181818;stroke-width:0.5;" width="130" x="719" y="1097"/><ellipse cx="734" cy="1113" fill="#ADD1B2" rx="11" ry="11" style="stroke:#181818;stroke-width:1.0;"/><path d="M736.9688,1118.6406 Q736.3906,1118.9375 735.75,1119.0781 Q735.1094,1119.2344 734.4063,1119.2344 Q731.9063,1119.2344 730.5781,1117.5938 Q729.2656,1115.9375 729.2656,1112.8125 Q729.2656,1109.6875 730.5781,1108.0313 Q731.9063,1106.375 734.4063,1106.375 Q735.1094,1106.375 735.75,1106.5313 Q736.4063,1106.6875 736.9688,1106.9844 L736.9688,1109.7031 Q736.3438,1109.125 735.75,1108.8594 Q735.1563,1108.5781 734.5313,1108.5781 Q733.1875,1108.5781 732.5,1109.6563 Q731.8125,1110.7188 731.8125,1112.8125 Q731.8125,1114.9063 732.5,1115.9844 Q733.1875,1117.0469 734.5313,1117.0469 Q735.1563,1117.0469 735.75,1116.7813 Q736.3438,1116.5 736.9688,1115.9219 L736.9688,1118.6406 Z " fill="#000000"/><text fill="#000000" font-family="sans-serif" font-size="14" lengthAdjust="spacing" textLength="98" x="748" y="1117.8467">BasketHeader</text></g><!--class BasketItem--><g id="elem_BasketItem"><rect codeLine="48" fill="#F1F1F1" height="32" id="BasketItem" rx="2.5" ry="2.5" style="stroke:#181818;stroke-width:0.5;" width="110" x="729" y="1164"/><ellipse cx="744" cy="1180" fill="#ADD1B2" rx="11" ry="11" style="stroke:#181818;stroke-width:1.0;"/><path d="M746.9688,1185.6406 Q746.3906,1185.9375 745.75,1186.0781 Q745.1094,1186.2344 744.4063,1186.2344 Q741.9063,1186.2344 740.5781,1184.5938 Q739.2656,1182.9375 739.2656,1179.8125 Q739.2656,1176.6875 740.5781,1175.0313 Q741.9063,1173.375 744.4063,1173.375 Q745.1094,1173.375 745.75,1173.5313 Q746.4063,1173.6875 746.9688,1173.9844 L746.9688,1176.7031 Q746.3438,1176.125 745.75,1175.8594 Q745.1563,1175.5781 744.5313,1175.5781 Q743.1875,1175.5781 742.5,1176.6563 Q741.8125,1177.7188 741.8125,1179.8125 Q741.8125,1181.9063 742.5,1182.9844 Q743.1875,1184.0469 744.5313,1184.0469 Q745.1563,1184.0469 745.75,1183.7813 Q746.3438,1183.5 746.9688,1182.9219 L746.9688,1185.6406 Z " fill="#000000"/><text fill="#000000" font-family="sans-serif" font-size="14" lengthAdjust="spacing" textLength="78" x="758" y="1184.8467">BasketItem</text></g><!--class CardHolder--><g id="elem_CardHolder"><rect codeLine="51" fill="#F1F1F1" height="32" id="CardHolder" rx="2.5" ry="2.5" style="stroke:#181818;stroke-width:0.5;" width="109" x="729.5" y="762"/><ellipse cx="744.5" cy="778" fill="#ADD1B2" rx="11" ry="11" style="stroke:#181818;stroke-width:1.0;"/><path d="M747.4688,783.6406 Q746.8906,783.9375 746.25,784.0781 Q745.6094,784.2344 744.9063,784.2344 Q742.4063,784.2344 741.0781,782.5938 Q739.7656,780.9375 739.7656,777.8125 Q739.7656,774.6875 741.0781,773.0313 Q742.4063,771.375 744.9063,771.375 Q745.6094,771.375 746.25,771.5313 Q746.9063,771.6875 747.4688,771.9844 L747.4688,774.7031 Q746.8438,774.125 746.25,773.8594 Q745.6563,773.5781 745.0313,773.5781 Q743.6875,773.5781 743,774.6563 Q742.3125,775.7188 742.3125,777.8125 Q742.3125,779.9063 743,780.9844 Q743.6875,782.0469 745.0313,782.0469 Q745.6563,782.0469 746.25,781.7813 Q746.8438,781.5 747.4688,780.9219 L747.4688,783.6406 Z " fill="#000000"/><text fill="#000000" font-family="sans-serif" font-size="14" lengthAdjust="spacing" textLength="77" x="758.5" y="782.8467">CardHolder</text></g><!--class CardHolderPhoneNumber--><g id="elem_CardHolderPhoneNumber"><rect codeLine="54" fill="#F1F1F1" height="32" id="CardHolderPhoneNumber" rx="2.5" ry="2.5" style="stroke:#181818;stroke-width:0.5;" width="209" x="679.5" y="829"/><ellipse cx="694.5" cy="845" fill="#ADD1B2" rx="11" ry="11" style="stroke:#181818;stroke-width:1.0;"/><path d="M697.4688,850.6406 Q696.8906,850.9375 696.25,851.0781 Q695.6094,851.2344 694.9063,851.2344 Q692.4063,851.2344 691.0781,849.5938 Q689.7656,847.9375 689.7656,844.8125 Q689.7656,841.6875 691.0781,840.0313 Q692.4063,838.375 694.9063,838.375 Q695.6094,838.375 696.25,838.5313 Q696.9063,838.6875 697.4688,838.9844 L697.4688,841.7031 Q696.8438,841.125 696.25,840.8594 Q695.6563,840.5781 695.0313,840.5781 Q693.6875,840.5781 693,841.6563 Q692.3125,842.7188 692.3125,844.8125 Q692.3125,846.9063 693,847.9844 Q693.6875,849.0469 695.0313,849.0469 Q695.6563,849.0469 696.25,848.7813 Q696.8438,848.5 697.4688,847.9219 L697.4688,850.6406 Z " fill="#000000"/><text fill="#000000" font-family="sans-serif" font-size="14" lengthAdjust="spacing" textLength="177" x="708.5" y="849.8467">CardHolderPhoneNumber</text></g><!--class CustomerBasket--><g id="elem_CustomerBasket"><rect codeLine="57" fill="#F1F1F1" height="32" id="CustomerBasket" rx="2.5" ry="2.5" style="stroke:#181818;stroke-width:0.5;" width="148" x="710" y="896"/><ellipse cx="725" cy="912" fill="#ADD1B2" rx="11" ry="11" style="stroke:#181818;stroke-width:1.0;"/><path d="M727.9688,917.6406 Q727.3906,917.9375 726.75,918.0781 Q726.1094,918.2344 725.4063,918.2344 Q722.9063,918.2344 721.5781,916.5938 Q720.2656,914.9375 720.2656,911.8125 Q720.2656,908.6875 721.5781,907.0313 Q722.9063,905.375 725.4063,905.375 Q726.1094,905.375 726.75,905.5313 Q727.4063,905.6875 727.9688,905.9844 L727.9688,908.7031 Q727.3438,908.125 726.75,907.8594 Q726.1563,907.5781 725.5313,907.5781 Q724.1875,907.5781 723.5,908.6563 Q722.8125,909.7188 722.8125,911.8125 Q722.8125,913.9063 723.5,914.9844 Q724.1875,916.0469 725.5313,916.0469 Q726.1563,916.0469 726.75,915.7813 Q727.3438,915.5 727.9688,914.9219 L727.9688,917.6406 Z " fill="#000000"/><text fill="#000000" font-family="sans-serif" font-size="14" lengthAdjust="spacing" textLength="116" x="739" y="916.8467">CustomerBasket</text></g><!--class Payment--><g id="elem_Payment"><rect codeLine="60" fill="#F1F1F1" height="32" id="Payment" rx="2.5" ry="2.5" style="stroke:#181818;stroke-width:0.5;" width="92" x="738" y="963"/><ellipse cx="753" cy="979" fill="#ADD1B2" rx="11" ry="11" style="stroke:#181818;stroke-width:1.0;"/><path d="M755.9688,984.6406 Q755.3906,984.9375 754.75,985.0781 Q754.1094,985.2344 753.4063,985.2344 Q750.9063,985.2344 749.5781,983.5938 Q748.2656,981.9375 748.2656,978.8125 Q748.2656,975.6875 749.5781,974.0313 Q750.9063,972.375 753.4063,972.375 Q754.1094,972.375 754.75,972.5313 Q755.4063,972.6875 755.9688,972.9844 L755.9688,975.7031 Q755.3438,975.125 754.75,974.8594 Q754.1563,974.5781 753.5313,974.5781 Q752.1875,974.5781 751.5,975.6563 Q750.8125,976.7188 750.8125,978.8125 Q750.8125,980.9063 751.5,981.9844 Q752.1875,983.0469 753.5313,983.0469 Q754.1563,983.0469 754.75,982.7813 Q755.3438,982.5 755.9688,981.9219 L755.9688,984.6406 Z " fill="#000000"/><text fill="#000000" font-family="sans-serif" font-size="14" lengthAdjust="spacing" textLength="60" x="767" y="983.8467">Payment</text></g><!--class PaymentInfoRequest--><g id="elem_PaymentInfoRequest"><rect codeLine="63" fill="#F1F1F1" height="32" id="PaymentInfoRequest" rx="2.5" ry="2.5" style="stroke:#181818;stroke-width:0.5;" width="176" x="958.5" y="1131"/><ellipse cx="973.5" cy="1147" fill="#ADD1B2" rx="11" ry="11" style="stroke:#181818;stroke-width:1.0;"/><path d="M976.4688,1152.6406 Q975.8906,1152.9375 975.25,1153.0781 Q974.6094,1153.2344 973.9063,1153.2344 Q971.4063,1153.2344 970.0781,1151.5938 Q968.7656,1149.9375 968.7656,1146.8125 Q968.7656,1143.6875 970.0781,1142.0313 Q971.4063,1140.375 973.9063,1140.375 Q974.6094,1140.375 975.25,1140.5313 Q975.9063,1140.6875 976.4688,1140.9844 L976.4688,1143.7031 Q975.8438,1143.125 975.25,1142.8594 Q974.6563,1142.5781 974.0313,1142.5781 Q972.6875,1142.5781 972,1143.6563 Q971.3125,1144.7188 971.3125,1146.8125 Q971.3125,1148.9063 972,1149.9844 Q972.6875,1151.0469 974.0313,1151.0469 Q974.6563,1151.0469 975.25,1150.7813 Q975.8438,1150.5 976.4688,1149.9219 L976.4688,1152.6406 Z " fill="#000000"/><text fill="#000000" font-family="sans-serif" font-size="14" lengthAdjust="spacing" textLength="144" x="987.5" y="1151.8467">PaymentInfoRequest</text></g><!--class PaymentGatewayRequest--><g id="elem_PaymentGatewayRequest"><rect codeLine="72" fill="#F1F1F1" height="32" id="PaymentGatewayRequest" rx="2.5" ry="2.5" style="stroke:#181818;stroke-width:0.5;" width="210" x="679" y="1231"/><ellipse cx="694" cy="1247" fill="#B4A7E5" rx="11" ry="11" style="stroke:#181818;stroke-width:1.0;"/><path d="M689.9219,1242.7656 L689.9219,1240.6094 L697.3125,1240.6094 L697.3125,1242.7656 L694.8438,1242.7656 L694.8438,1250.8438 L697.3125,1250.8438 L697.3125,1253 L689.9219,1253 L689.9219,1250.8438 L692.3906,1250.8438 L692.3906,1242.7656 L689.9219,1242.7656 Z " fill="#000000"/><text fill="#000000" font-family="sans-serif" font-size="14" font-style="italic" lengthAdjust="spacing" textLength="178" x="708" y="1251.8467">PaymentGatewayRequest</text></g><!--class PaymentReferenceType--><g id="elem_PaymentReferenceType"><rect codeLine="66" fill="#F1F1F1" height="32" id="PaymentReferenceType" rx="2.5" ry="2.5" style="stroke:#181818;stroke-width:0.5;" width="198" x="685" y="1298"/><ellipse cx="700" cy="1314" fill="#ADD1B2" rx="11" ry="11" style="stroke:#181818;stroke-width:1.0;"/><path d="M702.9688,1319.6406 Q702.3906,1319.9375 701.75,1320.0781 Q701.1094,1320.2344 700.4063,1320.2344 Q697.9063,1320.2344 696.5781,1318.5938 Q695.2656,1316.9375 695.2656,1313.8125 Q695.2656,1310.6875 696.5781,1309.0313 Q697.9063,1307.375 700.4063,1307.375 Q701.1094,1307.375 701.75,1307.5313 Q702.4063,1307.6875 702.9688,1307.9844 L702.9688,1310.7031 Q702.3438,1310.125 701.75,1309.8594 Q701.1563,1309.5781 700.5313,1309.5781 Q699.1875,1309.5781 698.5,1310.6563 Q697.8125,1311.7188 697.8125,1313.8125 Q697.8125,1315.9063 698.5,1316.9844 Q699.1875,1318.0469 700.5313,1318.0469 Q701.1563,1318.0469 701.75,1317.7813 Q702.3438,1317.5 702.9688,1316.9219 L702.9688,1319.6406 Z " fill="#000000"/><text fill="#000000" font-family="sans-serif" font-size="14" lengthAdjust="spacing" textLength="166" x="714" y="1318.8467">PaymentReferenceType</text></g><!--class PaymentRequest--><g id="elem_PaymentRequest"><rect codeLine="69" fill="#F1F1F1" height="32" id="PaymentRequest" rx="2.5" ry="2.5" style="stroke:#181818;stroke-width:0.5;" width="151" x="971" y="863"/><ellipse cx="986" cy="879" fill="#ADD1B2" rx="11" ry="11" style="stroke:#181818;stroke-width:1.0;"/><path d="M988.9688,884.6406 Q988.3906,884.9375 987.75,885.0781 Q987.1094,885.2344 986.4063,885.2344 Q983.9063,885.2344 982.5781,883.5938 Q981.2656,881.9375 981.2656,878.8125 Q981.2656,875.6875 982.5781,874.0313 Q983.9063,872.375 986.4063,872.375 Q987.1094,872.375 987.75,872.5313 Q988.4063,872.6875 988.9688,872.9844 L988.9688,875.7031 Q988.3438,875.125 987.75,874.8594 Q987.1563,874.5781 986.5313,874.5781 Q985.1875,874.5781 984.5,875.6563 Q983.8125,876.7188 983.8125,878.8125 Q983.8125,880.9063 984.5,881.9844 Q985.1875,883.0469 986.5313,883.0469 Q987.1563,883.0469 987.75,882.7813 Q988.3438,882.5 988.9688,881.9219 L988.9688,884.6406 Z " fill="#000000"/><text fill="#000000" font-family="sans-serif" font-size="14" lengthAdjust="spacing" textLength="119" x="1000" y="883.8467">PaymentRequest</text></g><!--class CurlResponse--><g id="elem_CurlResponse"><rect codeLine="75" fill="#F1F1F1" height="32" id="CurlResponse" rx="2.5" ry="2.5" style="stroke:#181818;stroke-width:0.5;" width="130" x="719" y="1405"/><ellipse cx="734" cy="1421" fill="#ADD1B2" rx="11" ry="11" style="stroke:#181818;stroke-width:1.0;"/><path d="M736.9688,1426.6406 Q736.3906,1426.9375 735.75,1427.0781 Q735.1094,1427.2344 734.4063,1427.2344 Q731.9063,1427.2344 730.5781,1425.5938 Q729.2656,1423.9375 729.2656,1420.8125 Q729.2656,1417.6875 730.5781,1416.0313 Q731.9063,1414.375 734.4063,1414.375 Q735.1094,1414.375 735.75,1414.5313 Q736.4063,1414.6875 736.9688,1414.9844 L736.9688,1417.7031 Q736.3438,1417.125 735.75,1416.8594 Q735.1563,1416.5781 734.5313,1416.5781 Q733.1875,1416.5781 732.5,1417.6563 Q731.8125,1418.7188 731.8125,1420.8125 Q731.8125,1422.9063 732.5,1423.9844 Q733.1875,1425.0469 734.5313,1425.0469 Q735.1563,1425.0469 735.75,1424.7813 Q736.3438,1424.5 736.9688,1423.9219 L736.9688,1426.6406 Z " fill="#000000"/><text fill="#000000" font-family="sans-serif" font-size="14" lengthAdjust="spacing" textLength="98" x="748" y="1425.8467">CurlResponse</text></g><!--class PaymentInfoResponse--><g id="elem_PaymentInfoResponse"><rect codeLine="78" fill="#F1F1F1" height="32" id="PaymentInfoResponse" rx="2.5" ry="2.5" style="stroke:#181818;stroke-width:0.5;" width="188" x="690" y="1472"/><ellipse cx="705" cy="1488" fill="#ADD1B2" rx="11" ry="11" style="stroke:#181818;stroke-width:1.0;"/><path d="M707.9688,1493.6406 Q707.3906,1493.9375 706.75,1494.0781 Q706.1094,1494.2344 705.4063,1494.2344 Q702.9063,1494.2344 701.5781,1492.5938 Q700.2656,1490.9375 700.2656,1487.8125 Q700.2656,1484.6875 701.5781,1483.0313 Q702.9063,1481.375 705.4063,1481.375 Q706.1094,1481.375 706.75,1481.5313 Q707.4063,1481.6875 707.9688,1481.9844 L707.9688,1484.7031 Q707.3438,1484.125 706.75,1483.8594 Q706.1563,1483.5781 705.5313,1483.5781 Q704.1875,1483.5781 703.5,1484.6563 Q702.8125,1485.7188 702.8125,1487.8125 Q702.8125,1489.9063 703.5,1490.9844 Q704.1875,1492.0469 705.5313,1492.0469 Q706.1563,1492.0469 706.75,1491.7813 Q707.3438,1491.5 707.9688,1490.9219 L707.9688,1493.6406 Z " fill="#000000"/><text fill="#000000" font-family="sans-serif" font-size="14" lengthAdjust="spacing" textLength="156" x="719" y="1492.8467">PaymentInfoResponse</text></g><!--class PaymentResponse--><g id="elem_PaymentResponse"><rect codeLine="81" fill="#F1F1F1" height="32" id="PaymentResponse" rx="2.5" ry="2.5" style="stroke:#181818;stroke-width:0.5;" width="163" x="702.5" y="1539"/><ellipse cx="717.5" cy="1555" fill="#ADD1B2" rx="11" ry="11" style="stroke:#181818;stroke-width:1.0;"/><path d="M720.4688,1560.6406 Q719.8906,1560.9375 719.25,1561.0781 Q718.6094,1561.2344 717.9063,1561.2344 Q715.4063,1561.2344 714.0781,1559.5938 Q712.7656,1557.9375 712.7656,1554.8125 Q712.7656,1551.6875 714.0781,1550.0313 Q715.4063,1548.375 717.9063,1548.375 Q718.6094,1548.375 719.25,1548.5313 Q719.9063,1548.6875 720.4688,1548.9844 L720.4688,1551.7031 Q719.8438,1551.125 719.25,1550.8594 Q718.6563,1550.5781 718.0313,1550.5781 Q716.6875,1550.5781 716,1551.6563 Q715.3125,1552.7188 715.3125,1554.8125 Q715.3125,1556.9063 716,1557.9844 Q716.6875,1559.0469 718.0313,1559.0469 Q718.6563,1559.0469 719.25,1558.7813 Q719.8438,1558.5 720.4688,1557.9219 L720.4688,1560.6406 Z " fill="#000000"/><text fill="#000000" font-family="sans-serif" font-size="14" lengthAdjust="spacing" textLength="131" x="731.5" y="1559.8467">PaymentResponse</text></g><!--class AbstractToArray--><g id="elem_AbstractToArray"><rect codeLine="87" fill="#F1F1F1" height="32" id="AbstractToArray" rx="2.5" ry="2.5" style="stroke:#181818;stroke-width:0.5;" width="141" x="353" y="930"/><ellipse cx="368" cy="946" fill="#A9DCDF" rx="11" ry="11" style="stroke:#181818;stroke-width:1.0;"/><path d="M368.1094,941.3438 L366.9531,946.4219 L369.2813,946.4219 L368.1094,941.3438 Z M366.625,939.1094 L369.6094,939.1094 L372.9688,951.5 L370.5156,951.5 L369.75,948.4375 L366.4688,948.4375 L365.7188,951.5 L363.2813,951.5 L366.625,939.1094 Z " fill="#000000"/><text fill="#000000" font-family="sans-serif" font-size="14" font-style="italic" lengthAdjust="spacing" textLength="109" x="382" y="950.8467">AbstractToArray</text></g><!--class Utils--><g id="elem_Utils"><rect codeLine="90" fill="#F1F1F1" height="32" id="Utils" rx="2.5" ry="2.5" style="stroke:#181818;stroke-width:0.5;" width="61" x="393" y="997"/><ellipse cx="408" cy="1013" fill="#ADD1B2" rx="11" ry="11" style="stroke:#181818;stroke-width:1.0;"/><path d="M410.9688,1018.6406 Q410.3906,1018.9375 409.75,1019.0781 Q409.1094,1019.2344 408.4063,1019.2344 Q405.9063,1019.2344 404.5781,1017.5938 Q403.2656,1015.9375 403.2656,1012.8125 Q403.2656,1009.6875 404.5781,1008.0313 Q405.9063,1006.375 408.4063,1006.375 Q409.1094,1006.375 409.75,1006.5313 Q410.4063,1006.6875 410.9688,1006.9844 L410.9688,1009.7031 Q410.3438,1009.125 409.75,1008.8594 Q409.1563,1008.5781 408.5313,1008.5781 Q407.1875,1008.5781 406.5,1009.6563 Q405.8125,1010.7188 405.8125,1012.8125 Q405.8125,1014.9063 406.5,1015.9844 Q407.1875,1017.0469 408.5313,1017.0469 Q409.1563,1017.0469 409.75,1016.7813 Q410.3438,1016.5 410.9688,1015.9219 L410.9688,1018.6406 Z " fill="#000000"/><text fill="#000000" font-family="sans-serif" font-size="14" lengthAdjust="spacing" textLength="29" x="422" y="1017.8467">Utils</text></g><!--class PaymentGatewayRequester--><g id="elem_PaymentGatewayRequester"><rect codeLine="84" fill="#F1F1F1" height="32" id="PaymentGatewayRequester" rx="2.5" ry="2.5" style="stroke:#181818;stroke-width:0.5;" width="224" x="311.5" y="1146"/><ellipse cx="326.5" cy="1162" fill="#ADD1B2" rx="11" ry="11" style="stroke:#181818;stroke-width:1.0;"/><path d="M329.4688,1167.6406 Q328.8906,1167.9375 328.25,1168.0781 Q327.6094,1168.2344 326.9063,1168.2344 Q324.4063,1168.2344 323.0781,1166.5938 Q321.7656,1164.9375 321.7656,1161.8125 Q321.7656,1158.6875 323.0781,1157.0313 Q324.4063,1155.375 326.9063,1155.375 Q327.6094,1155.375 328.25,1155.5313 Q328.9063,1155.6875 329.4688,1155.9844 L329.4688,1158.7031 Q328.8438,1158.125 328.25,1157.8594 Q327.6563,1157.5781 327.0313,1157.5781 Q325.6875,1157.5781 325,1158.6563 Q324.3125,1159.7188 324.3125,1161.8125 Q324.3125,1163.9063 325,1164.9844 Q325.6875,1166.0469 327.0313,1166.0469 Q327.6563,1166.0469 328.25,1165.7813 Q328.8438,1165.5 329.4688,1164.9219 L329.4688,1167.6406 Z " fill="#000000"/><text fill="#000000" font-family="sans-serif" font-size="14" lengthAdjust="spacing" textLength="192" x="340.5" y="1166.8467">PaymentGatewayRequester</text></g><!--class PaymentGatewayRequesterTest--><g id="elem_PaymentGatewayRequesterTest"><rect codeLine="93" fill="#F1F1F1" height="32" id="PaymentGatewayRequesterTest" rx="2.5" ry="2.5" style="stroke:#181818;stroke-width:0.5;" width="255" x="296" y="1380"/><ellipse cx="311" cy="1396" fill="#ADD1B2" rx="11" ry="11" style="stroke:#181818;stroke-width:1.0;"/><path d="M313.9688,1401.6406 Q313.3906,1401.9375 312.75,1402.0781 Q312.1094,1402.2344 311.4063,1402.2344 Q308.9063,1402.2344 307.5781,1400.5938 Q306.2656,1398.9375 306.2656,1395.8125 Q306.2656,1392.6875 307.5781,1391.0313 Q308.9063,1389.375 311.4063,1389.375 Q312.1094,1389.375 312.75,1389.5313 Q313.4063,1389.6875 313.9688,1389.9844 L313.9688,1392.7031 Q313.3438,1392.125 312.75,1391.8594 Q312.1563,1391.5781 311.5313,1391.5781 Q310.1875,1391.5781 309.5,1392.6563 Q308.8125,1393.7188 308.8125,1395.8125 Q308.8125,1397.9063 309.5,1398.9844 Q310.1875,1400.0469 311.5313,1400.0469 Q312.1563,1400.0469 312.75,1399.7813 Q313.3438,1399.5 313.9688,1398.9219 L313.9688,1401.6406 Z " fill="#000000"/><text fill="#000000" font-family="sans-serif" font-size="14" lengthAdjust="spacing" textLength="223" x="325" y="1400.8467">PaymentGatewayRequesterTest</text></g><!--class UtilsTest--><g id="elem_UtilsTest"><rect codeLine="96" fill="#F1F1F1" height="32" id="UtilsTest" rx="2.5" ry="2.5" style="stroke:#181818;stroke-width:0.5;" width="92" x="377.5" y="1487"/><ellipse cx="392.5" cy="1503" fill="#ADD1B2" rx="11" ry="11" style="stroke:#181818;stroke-width:1.0;"/><path d="M395.4688,1508.6406 Q394.8906,1508.9375 394.25,1509.0781 Q393.6094,1509.2344 392.9063,1509.2344 Q390.4063,1509.2344 389.0781,1507.5938 Q387.7656,1505.9375 387.7656,1502.8125 Q387.7656,1499.6875 389.0781,1498.0313 Q390.4063,1496.375 392.9063,1496.375 Q393.6094,1496.375 394.25,1496.5313 Q394.9063,1496.6875 395.4688,1496.9844 L395.4688,1499.7031 Q394.8438,1499.125 394.25,1498.8594 Q393.6563,1498.5781 393.0313,1498.5781 Q391.6875,1498.5781 391,1499.6563 Q390.3125,1500.7188 390.3125,1502.8125 Q390.3125,1504.9063 391,1505.9844 Q391.6875,1507.0469 393.0313,1507.0469 Q393.6563,1507.0469 394.25,1506.7813 Q394.8438,1506.5 395.4688,1505.9219 L395.4688,1508.6406 Z " fill="#000000"/><text fill="#000000" font-family="sans-serif" font-size="14" lengthAdjust="spacing" textLength="60" x="406.5" y="1507.8467">UtilsTest</text></g><!--class TestCase--><g id="elem_TestCase"><rect fill="#F1F1F1" height="32" id="TestCase" rx="2.5" ry="2.5" style="stroke:#181818;stroke-width:0.5;" width="98" x="46" y="1434"/><ellipse cx="61" cy="1450" fill="#ADD1B2" rx="11" ry="11" style="stroke:#181818;stroke-width:1.0;"/><path d="M63.9688,1455.6406 Q63.3906,1455.9375 62.75,1456.0781 Q62.1094,1456.2344 61.4063,1456.2344 Q58.9063,1456.2344 57.5781,1454.5938 Q56.2656,1452.9375 56.2656,1449.8125 Q56.2656,1446.6875 57.5781,1445.0313 Q58.9063,1443.375 61.4063,1443.375 Q62.1094,1443.375 62.75,1443.5313 Q63.4063,1443.6875 63.9688,1443.9844 L63.9688,1446.7031 Q63.3438,1446.125 62.75,1445.8594 Q62.1563,1445.5781 61.5313,1445.5781 Q60.1875,1445.5781 59.5,1446.6563 Q58.8125,1447.7188 58.8125,1449.8125 Q58.8125,1451.9063 59.5,1452.9844 Q60.1875,1454.0469 61.5313,1454.0469 Q62.1563,1454.0469 62.75,1453.7813 Q63.3438,1453.5 63.9688,1452.9219 L63.9688,1455.6406 Z " fill="#000000"/><text fill="#000000" font-family="sans-serif" font-size="14" lengthAdjust="spacing" textLength="66" x="75" y="1454.8467">TestCase</text></g><!--class Exception--><g id="elem_Exception"><rect fill="#F1F1F1" height="32" id="Exception" rx="2.5" ry="2.5" style="stroke:#181818;stroke-width:0.5;" width="100" x="45" y="295"/><ellipse cx="60" cy="311" fill="#ADD1B2" rx="11" ry="11" style="stroke:#181818;stroke-width:1.0;"/><path d="M62.9688,316.6406 Q62.3906,316.9375 61.75,317.0781 Q61.1094,317.2344 60.4063,317.2344 Q57.9063,317.2344 56.5781,315.5938 Q55.2656,313.9375 55.2656,310.8125 Q55.2656,307.6875 56.5781,306.0313 Q57.9063,304.375 60.4063,304.375 Q61.1094,304.375 61.75,304.5313 Q62.4063,304.6875 62.9688,304.9844 L62.9688,307.7031 Q62.3438,307.125 61.75,306.8594 Q61.1563,306.5781 60.5313,306.5781 Q59.1875,306.5781 58.5,307.6563 Q57.8125,308.7188 57.8125,310.8125 Q57.8125,312.9063 58.5,313.9844 Q59.1875,315.0469 60.5313,315.0469 Q61.1563,315.0469 61.75,314.7813 Q62.3438,314.5 62.9688,313.9219 L62.9688,316.6406 Z " fill="#000000"/><text fill="#000000" font-family="sans-serif" font-size="14" lengthAdjust="spacing" textLength="68" x="74" y="315.8467">Exception</text></g><!--reverse link Exception to CurlRequestException--><g id="link_Exception_CurlRequestException"><path d="M95.5,347.07 C95.5,347.07 95.5,411 95.5,411 C95.5,411 233.41,411 330.39,411 " fill="none" id="Exception-backto-CurlRequestException" style="stroke:#516F42;stroke-width:1.0;"/><polygon fill="none" points="88.5,347.07,95.5,327.07,102.5,347.07,88.5,347.07" style="stroke:#516F42;stroke-width:1.0;"/></g><!--reverse link Exception to VariableLengthException--><g id="link_Exception_VariableLengthException"><path d="M70.5,347.01 C70.5,347.01 70.5,478 70.5,478 C70.5,478 218.03,478 322.34,478 " fill="none" id="Exception-backto-VariableLengthException" style="stroke:#516F42;stroke-width:1.0;"/><polygon fill="none" points="63.5,347.01,70.5,327.01,77.5,347.01,63.5,347.01" style="stroke:#516F42;stroke-width:1.0;"/></g><!--reverse link VariableLengthException to VariableMaxLengthException--><g id="link_VariableLengthException_VariableMaxLengthException"><path d="M544.88,472.67 C544.88,472.67 669.42,472.67 669.42,472.67 " fill="none" id="VariableLengthException-backto-VariableMaxLengthException" style="stroke:#516F42;stroke-width:1.0;"/><polygon fill="none" points="544.88,479.67,524.88,472.67,544.88,465.67,544.88,479.67" style="stroke:#516F42;stroke-width:1.0;"/></g><!--reverse link VariableLengthException to VariableMinLengthException--><g id="link_VariableLengthException_VariableMinLengthException"><path d="M529.92,483.33 C529.92,483.33 530.5,483.33 530.5,483.33 C530.5,483.33 530.5,411 530.5,411 C530.5,411 603.37,411 670.97,411 " fill="none" id="VariableLengthException-backto-VariableMinLengthException" style="stroke:#516F42;stroke-width:1.0;"/><polygon fill="none" points="544.75,490.33,524.75,483.33,544.75,476.33,544.75,490.33" style="stroke:#516F42;stroke-width:1.0;"/></g><!--reverse link Exception to VariableNotContainsException--><g id="link_Exception_VariableNotContainsException"><path d="M78.5,274.89 C78.5,274.89 78.5,143 78.5,143 C78.5,143 204.16,143 303.8,143 " fill="none" id="Exception-backto-VariableNotContainsException" style="stroke:#516F42;stroke-width:1.0;"/><polygon fill="none" points="85.5,274.89,78.5,294.89,71.5,274.89,85.5,274.89" style="stroke:#516F42;stroke-width:1.0;"/></g><!--reverse link Exception to VariableNotGuidException--><g id="link_Exception_VariableNotGuidException"><path d="M112.5,274.77 C112.5,274.77 112.5,210 112.5,210 C112.5,210 227.99,210 318.21,210 " fill="none" id="Exception-backto-VariableNotGuidException" style="stroke:#516F42;stroke-width:1.0;"/><polygon fill="none" points="119.5,274.77,112.5,294.77,105.5,274.77,119.5,274.77" style="stroke:#516F42;stroke-width:1.0;"/></g><!--reverse link Exception to VariableNotInRangeException--><g id="link_Exception_VariableNotInRangeException"><path d="M165.21,311 C165.21,311 317.5,311 317.5,311 C317.5,311 317.5,301.96 317.5,293.2 " fill="none" id="Exception-backto-VariableNotInRangeException" style="stroke:#516F42;stroke-width:1.0;"/><polygon fill="none" points="165.21,318,145.21,311,165.21,304,165.21,318" style="stroke:#516F42;stroke-width:1.0;"/></g><!--reverse link Exception to VariableNotUrlException--><g id="link_Exception_VariableNotUrlException"><path d="M119.5,342.31 C119.5,342.31 119.5,344 119.5,344 C119.5,344 236.4,344 325.22,344 " fill="none" id="Exception-backto-VariableNotUrlException" style="stroke:#516F42;stroke-width:1.0;"/><polygon fill="none" points="112.5,347.11,119.5,327.11,126.5,347.11,112.5,347.11" style="stroke:#516F42;stroke-width:1.0;"/></g><!--reverse link AbstractToArray to PaymentNotifyData--><g id="link_AbstractToArray_PaymentNotifyData"><path d="M388.5,909.62 C388.5,909.62 388.5,671 388.5,671 C388.5,671 586.75,671 702.53,671 " fill="none" id="AbstractToArray-backto-PaymentNotifyData" style="stroke:#516F42;stroke-width:1.0;"/><polygon fill="none" points="395.5,909.62,388.5,929.62,381.5,909.62,395.5,909.62" style="stroke:#516F42;stroke-width:1.0;"/></g><!--reverse link AbstractToArray to Basket--><g id="link_AbstractToArray_Basket"><path d="M467.5,982.07 C467.5,982.07 467.5,1046 467.5,1046 C467.5,1046 658.75,1046 743.92,1046 " fill="none" id="AbstractToArray-backto-Basket" style="stroke:#516F42;stroke-width:1.0;"/><polygon fill="none" points="460.5,982.07,467.5,962.07,474.5,982.07,460.5,982.07" style="stroke:#516F42;stroke-width:1.0;"/></g><!--reverse link AbstractToArray to BasketHeader--><g id="link_AbstractToArray_BasketHeader"><path d="M514.24,946 C514.24,946 728.5,946 728.5,946 C728.5,946 728.5,1055.19 728.5,1096.99 " fill="none" id="AbstractToArray-backto-BasketHeader" style="stroke:#516F42;stroke-width:1.0;"/><polygon fill="none" points="514.24,953,494.24,946,514.24,939,514.24,953" style="stroke:#516F42;stroke-width:1.0;"/></g><!--reverse link AbstractToArray to BasketItem--><g id="link_AbstractToArray_BasketItem"><path d="M514.09,950 C514.09,950 674.5,950 674.5,950 C674.5,950 674.5,1171 674.5,1171 C674.5,1171 701.66,1171 728.93,1171 " fill="none" id="AbstractToArray-backto-BasketItem" style="stroke:#516F42;stroke-width:1.0;"/><polygon fill="none" points="514.09,957,494.09,950,514.09,943,514.09,957" style="stroke:#516F42;stroke-width:1.0;"/></g><!--reverse link AbstractToArray to CardHolder--><g id="link_AbstractToArray_CardHolder"><path d="M423.5,909.89 C423.5,909.89 423.5,778 423.5,778 C423.5,778 628.4,778 729.25,778 " fill="none" id="AbstractToArray-backto-CardHolder" style="stroke:#516F42;stroke-width:1.0;"/><polygon fill="none" points="430.5,909.89,423.5,929.89,416.5,909.89,430.5,909.89" style="stroke:#516F42;stroke-width:1.0;"/></g><!--reverse link AbstractToArray to CardHolderPhoneNumber--><g id="link_AbstractToArray_CardHolderPhoneNumber"><path d="M514.25,934 C514.25,934 695.5,934 695.5,934 C695.5,934 695.5,887.02 695.5,861.32 " fill="none" id="AbstractToArray-backto-CardHolderPhoneNumber" style="stroke:#516F42;stroke-width:1.0;"/><polygon fill="none" points="514.25,941,494.25,934,514.25,927,514.25,941" style="stroke:#516F42;stroke-width:1.0;"/></g><!--reverse link AbstractToArray to CustomerBasket--><g id="link_AbstractToArray_CustomerBasket"><path d="M514.31,938 C514.31,938 714.5,938 714.5,938 C714.5,938 714.5,933.37 714.5,928.02 " fill="none" id="AbstractToArray-backto-CustomerBasket" style="stroke:#516F42;stroke-width:1.0;"/><polygon fill="none" points="514.31,945,494.31,938,514.31,931,514.31,945" style="stroke:#516F42;stroke-width:1.0;"/></g><!--reverse link AbstractToArray to Payment--><g id="link_AbstractToArray_Payment"><path d="M481.5,977.31 C481.5,977.31 481.5,979 481.5,979 C481.5,979 652.99,979 737.73,979 " fill="none" id="AbstractToArray-backto-Payment" style="stroke:#516F42;stroke-width:1.0;"/><polygon fill="none" points="474.5,982.11,481.5,962.11,488.5,982.11,474.5,982.11" style="stroke:#516F42;stroke-width:1.0;"/></g><!--reverse link AbstractToArray to PaymentInfoRequest--><g id="link_AbstractToArray_PaymentInfoRequest"><path d="M514.08,942 C514.08,942 965.5,942 965.5,942 C965.5,942 965.5,1082.59 965.5,1130.91 " fill="none" id="AbstractToArray-backto-PaymentInfoRequest" style="stroke:#516F42;stroke-width:1.0;"/><polygon fill="none" points="514.08,949,494.08,942,514.08,935,514.08,949" style="stroke:#516F42;stroke-width:1.0;"/></g><!--reverse link PaymentGatewayRequest to PaymentInfoRequest--><g id="link_PaymentGatewayRequest_PaymentInfoRequest"><path d="M878.5,1210.89 C878.5,1210.89 878.5,1154.5 878.5,1154.5 C878.5,1154.5 917.6,1154.5 958.07,1154.5 " fill="none" id="PaymentGatewayRequest-backto-PaymentInfoRequest" style="stroke:#516F42;stroke-width:1.0;stroke-dasharray:7.0,7.0;"/><polygon fill="none" points="885.5,1210.89,878.5,1230.89,871.5,1210.89,885.5,1210.89" style="stroke:#516F42;stroke-width:1.0;"/></g><!--reverse link AbstractToArray to PaymentRequest--><g id="link_AbstractToArray_PaymentRequest"><path d="M459.5,909.95 C459.5,909.95 459.5,873.67 459.5,873.67 C459.5,873.67 812.42,873.67 970.96,873.67 " fill="none" id="AbstractToArray-backto-PaymentRequest" style="stroke:#516F42;stroke-width:1.0;"/><polygon fill="none" points="466.5,909.95,459.5,929.95,452.5,909.95,466.5,909.95" style="stroke:#516F42;stroke-width:1.0;"/></g><!--reverse link PaymentGatewayRequest to PaymentRequest--><g id="link_PaymentGatewayRequest_PaymentRequest"><path d="M868.5,1210.95 C868.5,1210.95 868.5,884.33 868.5,884.33 C868.5,884.33 922.31,884.33 970.75,884.33 " fill="none" id="PaymentGatewayRequest-backto-PaymentRequest" style="stroke:#516F42;stroke-width:1.0;stroke-dasharray:7.0,7.0;"/><polygon fill="none" points="875.5,1210.95,868.5,1230.95,861.5,1210.95,875.5,1210.95" style="stroke:#516F42;stroke-width:1.0;"/></g><!--reverse link AbstractToArray to PaymentInfoResponse--><g id="link_AbstractToArray_PaymentInfoResponse"><path d="M514.16,954 C514.16,954 630.5,954 630.5,954 C630.5,954 630.5,1479.5 630.5,1479.5 C630.5,1479.5 658.07,1479.5 689.85,1479.5 " fill="none" id="AbstractToArray-backto-PaymentInfoResponse" style="stroke:#516F42;stroke-width:1.0;"/><polygon fill="none" points="514.16,961,494.16,954,514.16,947,514.16,961" style="stroke:#516F42;stroke-width:1.0;"/></g><!--reverse link AbstractToArray to PaymentResponse--><g id="link_AbstractToArray_PaymentResponse"><path d="M514.32,958 C514.32,958 590.5,958 590.5,958 C590.5,958 590.5,1555 590.5,1555 C590.5,1555 649.62,1555 702.5,1555 " fill="none" id="AbstractToArray-backto-PaymentResponse" style="stroke:#516F42;stroke-width:1.0;"/><polygon fill="none" points="514.32,965,494.32,958,514.32,951,514.32,965" style="stroke:#516F42;stroke-width:1.0;"/></g><!--reverse link TestCase to PaymentGatewayRequesterTest--><g id="link_TestCase_PaymentGatewayRequesterTest"><path d="M164.07,1446.67 C164.07,1446.67 337.5,1446.67 337.5,1446.67 C337.5,1446.67 337.5,1426.88 337.5,1412.03 " fill="none" id="TestCase-backto-PaymentGatewayRequesterTest" style="stroke:#516F42;stroke-width:1.0;"/><polygon fill="none" points="164.07,1453.67,144.07,1446.67,164.07,1439.67,164.07,1453.67" style="stroke:#516F42;stroke-width:1.0;"/></g><!--reverse link TestCase to UtilsTest--><g id="link_TestCase_UtilsTest"><path d="M164.18,1456.33 C164.18,1456.33 423.5,1456.33 423.5,1456.33 C423.5,1456.33 423.5,1473.44 423.5,1486.94 " fill="none" id="TestCase-backto-UtilsTest" style="stroke:#516F42;stroke-width:1.0;"/><polygon fill="none" points="164.18,1463.33,144.18,1456.33,164.18,1449.33,164.18,1463.33" style="stroke:#516F42;stroke-width:1.0;"/></g><!--SRC=[pPVDSfim4CVlF8Lc-WJzojqXRUoPDCCuTazSrh20na9BLqjjfjDthx1nd7ISAOxj1Ww0TgN__lIr2AMKMsfR0KEfHioq2iaGgtUVtrzbdpu4wgaV4j4_jJJNn2bodugGB7EcsgPTvMnp7Qvyew4ac_OMtzNl4yCLaD9AsrnbO1m6mSkklSTeYz9Kg8YbeA3GAIeiAsbKYUK2sGK6Cr52YdLUY4eresSZ6pWKPQ54Lq623zZAYKUBuo084WFE-TVHnmVAf7r6q4H55HgDrfU_h1EiMfKu3cisK_nHevD7gyAre4rRXRtjL_3xAE7lm1eM1k_Gvb9SHliRh5-MFu7nrJpQ3ehddYGaAw2jkym4-02tjKul9ZwnKx0vNan_pkOCscCq5N8SUslf3RSWk89cLEauzZ5qrZowjiKR4EYnCEQYZRSkdB3FHpFogHEQaucwpHx7r-2MFeSCX6ECu5FoK6WcWkNRiuJ0wPZC8CPbpn8LPF6-RhzE0y2gdL29F9J5tFa60pAn6NMsLpFfiZBOYfs9gVFjiCxTvIbco6WJdBNdglEh3tymjHNap1yB1pfVhYBhS7Vst9REAFjiwNVgRxSV_wBwFqG7I0vEfa_X6pteWgX_2P_0j6tQtbs_1ZCFw8xfo-pvnep6qTngB_JL_sdXYdYvrGoXxtBh23RCtUFO67y0]--></g></svg>